<svg width="125" height="148" viewBox="0 0 125 148" fill="none" xmlns="http://www.w3.org/2000/svg">
<rect width="125" height="148" fill="white" fill-opacity="0.1"/>
<path d="M34.2388 115.051V119.348H31.7198V115.625L30.6085 114.384H26.5707V119.348H24.0517V106.383H32.1829L34.1647 108.383V112.31L32.9052 113.588L34.2388 115.051ZM26.5707 112.31H31.0345L31.6828 111.661V109.142L31.0345 108.494H26.5707V112.31ZM36.2726 117.459V112.05L38.1804 110.124H43.3851L45.3114 112.05V115.551H38.7176V116.736L39.3103 117.348H42.3294L42.885 116.774V116.292H45.2929V117.496L43.4592 119.348H38.1434L36.2726 117.459ZM42.8665 113.847V112.773L42.2368 112.124H39.3473L38.7176 112.773V113.847H42.8665ZM46.9786 117.644V115.533L48.6826 113.828H53.3687V112.662L52.7945 112.087H50.0162L49.4605 112.662V113.18H47.0527V112.124L49.0345 110.124H53.7947L55.7766 112.124V119.348H53.5724V118.033L52.2018 119.348H48.6826L46.9786 117.644ZM52.0351 117.459L53.3687 116.181V115.57H49.8865L49.3864 116.07V116.996L49.8495 117.459H52.0351ZM57.725 117.459V112.013L59.5957 110.124H64.6708L66.5786 112.05V113.754H64.1337V112.847L63.4854 112.199H60.8182L60.1699 112.847V116.625L60.8182 117.274H63.4854L64.1337 116.625V115.718H66.5786V117.422L64.6708 119.348H59.5957L57.725 117.459ZM69.072 117.459V112.18H67.405V110.124H69.109V107.123H71.5169V110.124H74.3323V112.199H71.5169V116.662L72.1466 117.274H74.3323V119.348H70.9798L69.072 117.459ZM80.2135 117.107V114.699H82.6584V116.255L83.603 117.2H86.0664L86.9555 116.329V106.383H89.4745V117.181L87.3074 119.348H82.4361L80.2135 117.107ZM91.5134 117.348V115.495H93.9954V116.588L94.6066 117.2H98.4407L99.0704 116.57V114.421L98.4592 113.81H93.5508L91.5504 111.81V108.383L93.5508 106.383H99.4038L101.404 108.383V110.254H98.9222V109.142L98.311 108.531H94.6436L94.0324 109.142V111.05L94.6436 111.661H99.552L101.552 113.662V117.311L99.5149 119.348H93.5138L91.5134 117.348Z" fill="#F0F0F0"/>
<path d="M51.3376 32.5636C50.4236 33.0913 49.4618 34.5464 49.3502 37.7206C49.2972 39.2283 48.0319 40.4075 46.5243 40.3545C45.0165 40.3015 43.8373 39.0363 43.8903 37.5286C44.0271 33.6372 45.2577 29.7653 48.6059 27.8322C51.9636 25.8937 55.9447 26.774 59.3918 28.613C60.7229 29.3231 61.2263 30.9778 60.5162 32.3088C59.8061 33.6399 58.1513 34.1433 56.8203 33.4332C54.0033 31.9304 52.2543 32.0343 51.3376 32.5636ZM65.9846 37.3017C67.1463 36.3392 68.8683 36.5007 69.8308 37.6625C71.85 40.0996 73.7869 42.8786 75.545 45.924C79.334 52.4862 81.6701 59.2094 82.2998 64.8488C82.6141 67.6639 82.518 70.3427 81.8605 72.6402C81.198 74.9551 79.9076 77.0505 77.7434 78.2998C75.1251 79.8116 72.1017 79.5971 69.3345 78.5897C66.5575 77.5786 63.6993 75.6639 60.9747 73.177C59.8604 72.1598 59.7817 70.4319 60.7987 69.3178C61.8158 68.2036 63.5436 68.1246 64.6579 69.1419C67.0585 71.333 69.3146 72.768 71.2035 73.456C73.1025 74.1473 74.2972 73.9812 75.0118 73.5686C75.6106 73.2229 76.213 72.5185 76.6082 71.137C77.0084 69.7384 77.1348 67.8234 76.8704 65.4549C76.3423 60.727 74.3169 54.7231 70.8138 48.6556C69.2026 45.8649 67.4394 43.3393 65.6238 41.1479C64.6613 39.9861 64.8228 38.2641 65.9846 37.3017Z" fill="#F0F0F0"/>
<path d="M86.485 53.8106C86.485 52.7553 85.7056 51.1947 83.0125 49.511C81.7334 48.7113 81.3448 47.0259 82.1446 45.7467C82.9444 44.4675 84.6297 44.0789 85.9088 44.8786C89.2104 46.9428 91.9483 49.9445 91.9483 53.8106C91.9483 57.6878 89.1955 60.6952 85.8793 62.761C84.5987 63.5587 82.9138 63.1675 82.1162 61.8869C81.3186 60.6063 81.7101 58.9217 82.9903 58.124C85.7005 56.4358 86.485 54.8692 86.485 53.8106ZM75.058 64.1261C75.3108 65.6136 74.3099 67.0242 72.8224 67.277C69.7025 67.8069 66.3272 68.0947 62.8108 68.0947C55.2334 68.0947 48.2427 66.7565 43.0442 64.482C40.449 63.3467 38.1772 61.9241 36.5162 60.2061C34.8424 58.4748 33.6733 56.3095 33.6733 53.8106C33.6733 50.7873 35.3709 48.276 37.6269 46.3835C39.891 44.484 42.9781 42.9661 46.4943 41.85C47.9323 41.3936 49.4679 42.1892 49.9244 43.6272C50.3808 45.0651 49.5851 46.6008 48.1472 47.0572C45.0491 48.0406 42.6783 49.2769 41.1381 50.5689C39.5898 51.8679 39.1366 52.9854 39.1366 53.8106C39.1366 54.5019 39.4453 55.3758 40.444 56.4088C41.4553 57.4549 43.0507 58.5217 45.234 59.4769C49.5925 61.3836 55.8047 62.6314 62.8108 62.6314C66.0332 62.6314 69.102 62.3673 71.9075 61.8906C73.395 61.6382 74.8056 62.639 75.058 64.1261Z" fill="#F0F0F0"/>
<path d="M51.4178 73.5685C52.3318 74.0963 54.0729 74.2015 56.8775 72.7111C58.2098 72.0031 59.8636 72.5094 60.5716 73.8413C61.2795 75.1736 60.7735 76.8275 59.4412 77.5356C56.0028 79.3625 52.0344 80.233 48.6861 78.2997C45.3285 76.3613 44.1003 72.4733 43.9693 68.5685C43.9188 67.0606 45.1001 65.7975 46.6079 65.7469C48.1157 65.6963 49.379 66.8774 49.4296 68.3853C49.5366 71.5766 50.5011 73.0393 51.4178 73.5685ZM48.1976 58.5147C46.7832 57.9898 46.0621 56.4178 46.5869 55.0033C47.688 52.0362 49.1262 48.9692 50.8844 45.9239C54.6731 39.3617 59.3275 33.9767 63.8964 30.6118C66.1773 28.932 68.5451 27.6759 70.8637 27.0964C73.1998 26.5125 75.6597 26.5827 77.8235 27.8322C80.4419 29.3438 81.768 32.0696 82.279 34.9696C82.7918 37.8801 82.5631 41.3126 81.7713 44.9158C81.4475 46.3893 79.9906 47.3214 78.5174 46.9977C77.0438 46.674 76.1117 45.2171 76.4355 43.7436C77.1326 40.5689 77.2474 37.8976 76.8988 35.9177C76.5481 33.9273 75.8065 32.9761 75.0919 32.5635C74.4935 32.2179 73.5822 32.0483 72.1884 32.3967C70.7767 32.7495 69.0551 33.5976 67.1362 35.0108C63.3056 37.832 59.1188 42.588 55.6158 48.6555C54.0045 51.4462 52.699 54.236 51.7089 56.9041C51.184 58.3184 49.612 59.0395 48.1976 58.5147Z" fill="#F0F0F0"/>
<path d="M68.1257 53.303C68.1257 56.0374 65.909 58.2541 63.1746 58.2541C60.4402 58.2541 58.2235 56.0374 58.2235 53.303C58.2235 50.5686 60.4402 48.352 63.1746 48.352C65.909 48.352 68.1257 50.5686 68.1257 53.303Z" fill="#F0F0F0"/>
</svg>
