<svg width="125" height="148" viewBox="0 0 125 148" fill="none" xmlns="http://www.w3.org/2000/svg">
<rect width="125" height="148" fill="white" fill-opacity="0.1"/>
<path d="M37.0841 106.383H46.271V108.513H39.6031V112.106H45.382V114.236H39.6031V119.348H37.0841V106.383ZM47.5708 108.198V107.012L48.4228 106.16H49.7193L50.5714 107.012V108.198L49.7193 109.05H48.4228L47.5708 108.198ZM47.8486 110.124H50.2935V119.348H47.8486V110.124ZM61.6376 110.124V121.46L59.6372 123.441H54.6177L52.8952 121.737V120.478H55.3401V121.034L55.692 121.404H58.5629L59.1927 120.756V118.144L57.9146 119.348H54.4325L52.5247 117.422V112.05L54.4325 110.124H58.0628L59.3779 111.384V110.124H61.6376ZM59.1927 113.328L57.9332 112.199H55.6735L54.9696 112.921V116.551L55.6735 117.274H57.6924L59.1927 115.736V113.328ZM63.8521 110.124H66.1118V111.643L67.6121 110.124H69.9459L71.2054 111.402L72.4649 110.124H75.6878L77.6696 112.124V119.348H75.2247V112.847L74.595 112.199H73.0391L72.0574 113.18V119.348H69.6866V112.81L69.0939 112.199H67.9826L66.2971 113.903V119.348H63.8521V110.124ZM79.5279 117.644V115.533L81.232 113.828H85.9181V112.662L85.3439 112.087H82.5655L82.0099 112.662V113.18H79.602V112.124L81.5839 110.124H86.3441L88.3259 112.124V119.348H86.1218V118.033L84.7512 119.348H81.232L79.5279 117.644ZM84.5845 117.459L85.9181 116.181V115.57H82.4359L81.9358 116.07V116.996L82.3988 117.459H84.5845Z" fill="#F0F0F0"/>
<path fill-rule="evenodd" clip-rule="evenodd" d="M45.814 38.4931C45.814 33.1291 50.1624 28.7806 55.5265 28.7806H70.0952C75.4594 28.7806 79.8077 33.1291 79.8077 38.4931C79.8077 41.394 78.536 43.9978 76.5196 45.7775C78.536 47.5571 79.8077 50.1609 79.8077 53.0619C79.8077 58.426 75.4594 62.7743 70.0952 62.7743C68.3261 62.7743 66.6675 62.3014 65.2389 61.475V67.6306C65.2389 72.9948 60.8906 77.3431 55.5265 77.3431C50.1624 77.3431 45.814 72.9948 45.814 67.6306C45.814 64.7297 47.0857 62.1259 49.102 60.3462C47.0857 58.5666 45.814 55.9628 45.814 53.0619C45.814 50.1609 47.0857 47.5571 49.1021 45.7775C47.0857 43.9978 45.814 41.394 45.814 38.4931ZM55.5265 48.2056C52.8444 48.2056 50.6702 50.3797 50.6702 53.0619C50.6702 55.744 52.8444 57.9181 55.5265 57.9181H60.3827V48.2056H55.5265ZM60.3827 43.3494H55.5265C52.8444 43.3494 50.6702 41.1751 50.6702 38.4931C50.6702 35.8111 52.8444 33.6369 55.5265 33.6369H60.3827V43.3494ZM70.0952 48.2056C67.413 48.2056 65.2389 50.3797 65.2389 53.0619C65.2389 55.744 67.413 57.9181 70.0952 57.9181C72.7773 57.9181 74.9514 55.744 74.9514 53.0619C74.9514 50.3797 72.7773 48.2056 70.0952 48.2056ZM65.2389 43.3494V33.6369H70.0952C72.7773 33.6369 74.9514 35.8111 74.9514 38.4931C74.9514 41.1752 72.7773 43.3494 70.0952 43.3494H65.2389ZM60.3827 62.7743H55.5265C52.8444 62.7743 50.6702 64.9485 50.6702 67.6306C50.6702 70.3127 52.8444 72.4868 55.5265 72.4868C58.2086 72.4868 60.3827 70.3127 60.3827 67.6306V62.7743Z" fill="#F0F0F0"/>
</svg>
