<svg width="125" height="148" viewBox="0 0 125 148" fill="none" xmlns="http://www.w3.org/2000/svg">
<rect width="125" height="148" fill="white" fill-opacity="0.1"/>
<path d="M42.4638 105.107V102.699H44.9087V104.255L45.8534 105.2H48.3168L49.2059 104.329V94.3826H51.7249V105.181L49.5578 107.348H44.6865L42.4638 105.107ZM53.6711 105.644V103.533L55.3752 101.828H60.0613V100.662L59.4871 100.087H56.7088L56.1531 100.662V101.18H53.7452V100.124L55.7271 98.1241H60.4873L62.4691 100.124V107.348H60.265V106.033L58.8944 107.348H55.3752L53.6711 105.644ZM58.7277 105.459L60.0613 104.181V103.57H56.5791L56.079 104.07V104.996L56.5421 105.459H58.7277ZM63.3106 98.1241H65.8481L67.9967 104.551H68.0708L70.2193 98.1241H72.7569L69.2191 107.348H66.8483L63.3106 98.1241ZM73.3147 105.644V103.533L75.0187 101.828H79.7048V100.662L79.1306 100.087H76.3523L75.7967 100.662V101.18H73.3888V100.124L75.3707 98.1241H80.1308L82.1127 100.124V107.348H79.9086V106.033L78.5379 107.348H75.0187L73.3147 105.644ZM78.3712 105.459L79.7048 104.181V103.57H76.2227L75.7226 104.07V104.996L76.1856 105.459H78.3712ZM36.9419 129.348V127.495H39.4239V128.588L40.0351 129.2H43.8692L44.4989 128.57V126.421L43.8877 125.81H38.9793L36.9789 123.81V120.383L38.9793 118.383H44.8323L46.8327 120.383V122.254H44.3507V121.142L43.7395 120.531H40.0721L39.4609 121.142V123.05L40.0721 123.661H44.9805L46.9809 125.662V129.311L44.9435 131.348H38.9423L36.9419 129.348ZM48.6448 129.459V124.013L50.5156 122.124H55.5906L57.4984 124.05V125.754H55.0535V124.847L54.4052 124.199H51.738L51.0898 124.847V128.625L51.738 129.274H54.4052L55.0535 128.625V127.718H57.4984V129.422L55.5906 131.348H50.5156L48.6448 129.459ZM59.1583 122.124H61.418V123.661L62.8998 122.124H65.5299V124.199H63.3999L61.6032 126.051V131.348H59.1583V122.124ZM66.6446 120.198V119.012L67.4966 118.16H68.7931L69.6451 119.012V120.198L68.7931 121.05H67.4966L66.6446 120.198ZM66.9224 122.124H69.3673V131.348H66.9224V122.124ZM71.7837 122.124H74.0434V123.476L75.3955 122.124H78.9888L80.8966 124.05V129.422L78.9888 131.348H75.4141L74.2286 130.366V135.275H71.7837V122.124ZM77.8034 129.274L78.4517 128.625V124.847L77.8034 124.199H75.7104L74.2286 125.699V127.959L75.6919 129.274H77.8034ZM83.4881 129.459V124.18H81.8211V122.124H83.5252V119.123H85.933V122.124H88.7484V124.199H85.933V128.662L86.5628 129.274H88.7484V131.348H85.3959L83.4881 129.459Z" fill="#F0F0F0"/>
<path fill-rule="evenodd" clip-rule="evenodd" d="M78.3353 77.6309C73.2508 77.6309 69.9641 75.2069 68.3615 72.0368L72.8195 69.4545C73.9938 71.3718 75.5176 72.7794 78.2187 72.7794C80.4856 72.7794 81.9337 71.6452 81.9337 70.0805C81.9337 67.7262 78.7927 66.8063 76.5753 65.8564C72.6243 64.1752 70.0019 62.0627 70.0019 57.6018C70.0019 53.4963 73.1313 50.3672 78.0235 50.3672C81.5025 50.3672 84.0083 51.5791 85.8061 54.7464L81.5432 57.4851C80.605 55.8039 79.5882 55.139 78.0235 55.139C76.418 55.139 75.4012 56.1564 75.4012 57.4851C75.4012 59.1285 76.418 59.7931 78.7665 60.81C83.6878 62.9196 87.4116 64.5769 87.4116 70.0023C87.4116 74.9323 83.5392 77.6309 78.3353 77.6309ZM65.7246 69.3763C65.7246 75.0493 62.2309 78.0478 57.3795 78.0478C52.9973 78.0478 50.372 76.3718 49.0812 73.4581H49.0376H49.0171H49.0055L53.4606 70.3437C54.3201 71.8676 55.0952 72.9487 56.9717 72.9487C58.7724 72.9487 59.8971 72.0369 59.8971 69.3009V50.1481H65.7246V69.3763ZM33.6733 82.1993H91.9483V23.9244H33.6733V82.1993Z" fill="#F0F0F0"/>
</svg>
