<svg width="125" height="149" viewBox="0 0 125 149" fill="none" xmlns="http://www.w3.org/2000/svg">
<rect width="125" height="148" transform="translate(0 0.0490723)" fill="white" fill-opacity="0.1"/>
<path d="M39.3444 118.775V116.855H41.9172V117.988L42.5508 118.622H46.5252L47.178 117.969V115.742L46.5444 115.108H41.4564L39.3828 113.035V109.483L41.4564 107.409H47.5236L49.5972 109.483V111.422H47.0244V110.27L46.3908 109.636H42.5892L41.9556 110.27V112.247L42.5892 112.881H47.6772L49.7508 114.955V118.737L47.6388 120.849H41.418L39.3444 118.775ZM55.2456 107.409H57.6264L62.5416 120.849H59.892L58.7976 117.873H54.0744L52.98 120.849H50.3304L55.2456 107.409ZM58.2216 115.723L56.436 110.615H56.3976L54.6696 115.723H58.2216ZM63.3257 118.775V116.855H65.8985V117.988L66.5321 118.622H70.5065L71.1593 117.969V115.742L70.5257 115.108H65.4377L63.3641 113.035V109.483L65.4377 107.409H71.5049L73.5785 109.483V111.422H71.0057V110.27L70.3721 109.636H66.5705L65.9369 110.27V112.247L66.5705 112.881H71.6585L73.7321 114.955V118.737L71.6201 120.849H65.3993L63.3257 118.775ZM75.5507 118.775V116.855H78.1235V117.988L78.7571 118.622H82.7315L83.3843 117.969V115.742L82.7507 115.108H77.6627L75.5891 113.035V109.483L77.6627 107.409H83.7299L85.8035 109.483V111.422H83.2307V110.27L82.5971 109.636H78.7955L78.1619 110.27V112.247L78.7955 112.881H83.8835L85.9571 114.955V118.737L83.8451 120.849H77.6243L75.5507 118.775Z" fill="#F0F0F0"/>
<path d="M84.5752 58.4433C84.6489 58.4414 84.7357 58.4395 84.8244 58.4395C86.3988 58.4395 87.8882 58.8058 89.2096 59.4589L89.1511 59.4325C90.3555 60.0196 91.3447 60.8879 92.0601 61.9526L92.0771 61.9791C92.6416 62.8021 92.9776 63.8196 92.9776 64.9145C92.9776 64.9938 92.9757 65.0731 92.9719 65.1505V65.1391C92.9134 66.2321 92.4169 67.1968 91.6543 67.8726L91.6505 67.8764C91.2333 68.286 90.7293 68.6069 90.1686 68.8108L90.1403 68.8202C89.8257 68.8832 89.6526 68.836 89.6212 68.6786C89.5897 68.5213 89.7313 68.3483 90.0459 68.1595C90.8992 67.6423 91.5165 66.8079 91.7411 65.8244L91.7468 65.7998C91.7524 65.7206 91.7562 65.6281 91.7562 65.5337C91.7562 64.9466 91.6165 64.3916 91.3692 63.9008L91.3786 63.9215C90.969 63.0664 90.3574 62.3642 89.6042 61.8563L89.5853 61.845C88.4583 61.1201 87.1067 60.6444 85.6531 60.5255L85.6229 60.5236C85.1283 60.45 84.5582 60.4085 83.9768 60.4085C82.4647 60.4085 81.0206 60.6935 79.6916 61.2126L79.7709 61.1843C80.0447 61.8243 80.2164 62.5661 80.241 63.3439V63.3533C80.2108 64.9485 79.3537 66.336 78.0795 67.1099L78.0587 67.1213C77.4735 67.5366 76.8053 67.9009 76.0936 68.1841L76.0275 68.2067C75.5952 68.4181 75.0874 68.5408 74.5513 68.5408C74.489 68.5408 74.4286 68.539 74.3682 68.5352H74.3776C73.1833 68.2847 72.9002 67.2465 73.5282 65.4204C73.8019 64.6257 74.1851 63.9366 74.6702 63.3307L74.6589 63.3439C75.28 62.5322 75.9615 61.8205 76.7147 61.19L76.7354 61.173L76.5504 60.8974C76.205 60.3084 75.8878 59.6232 75.633 58.9077L75.6066 58.8209C75.4178 58.1916 75.2605 57.5945 75.1346 57.0294L75.0402 56.3687L74.0964 58.1602C73.2784 59.6703 72.4918 60.9911 71.7367 62.1225L71.4535 62.5945C71.7707 63.3647 72.0048 64.2576 72.1105 65.1901L72.1142 65.2373C72.1218 65.326 72.1256 65.4317 72.1256 65.5374C72.1256 66.9684 71.4196 68.2331 70.336 69.0052L70.3228 69.0147C69.8055 69.3337 69.1882 69.664 68.5483 69.9585L68.435 70.0057C67.7687 70.2946 66.9966 70.4833 66.1867 70.5249H66.1697C66.1075 70.5286 66.0338 70.5324 65.9602 70.5324C65.4883 70.5324 65.0409 70.4248 64.6407 70.2341L64.6596 70.2417C64.4198 70.0359 64.2688 69.7339 64.2688 69.396C64.2688 69.2242 64.3084 69.06 64.3783 68.9146L64.3745 68.9222C65.1296 67.8631 65.8734 66.9419 66.6643 66.0622L66.6398 66.0906L68.7163 63.4496L68.3407 62.6001C68.0386 62.0451 67.7498 61.3901 67.5176 60.7105L67.4912 60.6199C67.3024 59.9906 67.1451 59.3935 67.0192 58.8284L66.9248 58.1677L65.981 60.433C65.2271 62.1936 64.535 63.7032 63.9045 64.9617C62.9644 66.8494 62.1778 68.2967 61.5448 69.3035L61.356 69.5867C60.6022 70.781 59.8785 71.3781 59.1851 71.3781C58.4917 71.3781 58.0216 70.9376 57.775 70.0567C57.5937 69.4073 57.488 68.6617 57.488 67.8915C57.488 67.8235 57.488 67.7555 57.4899 67.6876V67.697L57.6787 66.3756V66.47C57.1753 67.6643 56.6719 68.7649 56.1685 69.7717C55.8344 70.4248 55.4908 70.9817 55.1057 71.5065L55.1302 71.4706C54.7414 71.8784 54.1939 72.1313 53.5879 72.1313C53.5823 72.1313 53.5785 72.1313 53.5728 72.1313C53.5332 72.1351 53.4879 72.1351 53.4426 72.1351C52.965 72.1351 52.5308 71.9539 52.2023 71.6575L52.2042 71.6594C51.5454 70.9836 51.0565 70.1398 50.8035 69.1978L50.7941 69.1581C50.4845 68.2992 50.3071 67.3063 50.3071 66.2718C50.3071 66.1377 50.3108 66.0056 50.3165 65.8754V65.8942C50.4656 64.3916 50.7658 63.0154 51.2056 61.7034L51.166 61.8375L47.7699 63.8196V63.914C48.2626 64.9371 48.5515 66.1377 48.5515 67.4063C48.5515 67.6385 48.542 67.8688 48.5231 68.0953L48.525 68.0651C48.425 70.0095 47.8039 71.7896 46.8015 73.2942L46.8261 73.2564C45.7746 74.9252 44.2587 76.2145 42.4578 76.9602L42.3955 76.9828C41.3818 77.4378 40.1963 77.7039 38.9504 77.7039C38.1613 77.7039 37.3949 77.5982 36.67 77.3981L36.7304 77.4113C36.1301 77.2094 35.6393 76.8092 35.3278 76.2919L35.3222 76.2806C34.8823 75.6425 34.6048 74.8629 34.5614 74.0228V74.0115C34.5406 73.8209 34.5293 73.6 34.5293 73.3753C34.5293 72.4069 34.7502 71.4895 35.1447 70.6721L35.1277 70.7099C36.2113 68.8618 37.7101 67.3648 39.4997 66.3114L39.5564 66.2812C40.823 65.4034 42.2785 64.552 43.7981 63.8102L43.9982 63.7214L44.4702 63.4383C43.9038 62.9978 42.8656 62.2427 41.3554 61.173C39.3374 59.8214 37.5837 58.4565 35.93 56.9803L35.9772 57.0218C34.3783 55.6457 33.2135 53.807 32.6906 51.7135L32.6755 51.6418C32.6265 51.3511 32.5981 51.0169 32.5981 50.6771C32.5981 49.6125 32.8719 48.612 33.3514 47.7417L33.3363 47.7738C34.3934 45.501 35.8583 43.5849 37.6554 42.0445L37.6781 42.0256C39.6224 40.1888 41.8235 38.5899 44.2134 37.2949L44.3777 37.2138C46.5127 35.9811 49.0064 34.8352 51.6058 33.9159L51.9267 33.8177C54.3412 32.9343 57.1294 32.417 60.0365 32.4076H60.0403C60.1724 32.4038 60.3291 32.4 60.4858 32.4C62.8284 32.4 65.0447 32.9418 67.0155 33.9064L66.9286 33.8668C68.6276 34.6408 69.8999 36.0981 70.4096 37.8801L70.4209 37.9254C70.5776 38.5333 70.6663 39.2318 70.6663 39.951C70.6663 41.144 70.4191 42.2805 69.9754 43.3112L69.9962 43.2564C69.1882 45.214 68.0386 46.8809 66.6039 48.2533L66.5983 48.2589C65.1447 49.6993 63.4023 50.8508 61.4674 51.6191L61.3636 51.655C59.3361 52.5252 56.9821 53.0727 54.5111 53.1633L54.4752 53.1652C54.1127 53.2067 53.6937 53.2294 53.2689 53.2294C52.1514 53.2294 51.0735 53.0689 50.0541 52.7688L50.1353 52.7895C49.2235 52.4988 48.4363 52.0476 47.768 51.4624L47.7756 51.4681C47.3074 51.0868 46.9261 50.6167 46.6543 50.0825L46.6429 50.058C46.4542 49.5546 46.4384 49.2557 46.5958 49.1613C46.7531 49.0669 46.8632 49.0512 46.9261 49.1141L47.398 49.586C47.9247 50.075 48.5533 50.4601 49.248 50.7055L49.2858 50.7168C50.241 51.049 51.3434 51.2416 52.4893 51.2416C52.8574 51.2416 53.2198 51.2227 53.5766 51.1831L53.5332 51.1868C56.5876 50.8263 59.3418 49.7842 61.7185 48.2174L61.6486 48.2608C63.6572 47.0659 65.2825 45.4236 66.4265 43.466L66.4605 43.4018C67.0287 42.5674 67.3685 41.5367 67.3685 40.4267C67.3685 39.7452 67.2401 39.0921 67.006 38.4918L67.0192 38.5276C66.3132 37.412 65.1711 36.6267 63.8384 36.4096L63.812 36.4058C62.7775 36.151 61.5882 36.0037 60.3668 36.0037C59.3833 36.0037 58.4206 36.0981 57.4899 36.2793L57.5843 36.2642C54.3997 36.8381 51.553 37.8216 48.9271 39.1732L49.0989 39.0921C41.3617 42.9934 37.3666 46.9885 37.1136 51.0773V51.1698C37.1136 52.8178 37.7611 54.3148 38.8164 55.421L38.8145 55.4191C40.017 56.7557 41.3459 57.9355 42.7976 58.9549L42.8712 59.004C44.1945 59.9931 45.3649 61.0144 46.4542 62.1169L46.4561 62.1206L46.6448 62.3094L52.6856 59.0077C53.3746 58.011 54.2034 57.1691 55.1548 56.4895L55.185 56.4687C55.9401 55.8345 56.899 55.421 57.9505 55.338L57.9675 55.3361C58.0053 55.3323 58.0487 55.3323 58.094 55.3323C58.7981 55.3323 59.4022 55.7571 59.6627 56.3649L59.6665 56.3762C59.8647 56.8199 59.9798 57.339 59.9798 57.8845C59.9798 58.0507 59.9685 58.2149 59.9478 58.3772L59.9496 58.3584L59.7665 59.289L60.0497 59.1002C60.246 58.9511 60.4933 58.8624 60.7614 58.8624C60.9313 58.8624 61.0917 58.8983 61.2371 58.9624L61.2295 58.9587C61.592 59.0531 61.8544 59.3777 61.8544 59.7628C61.8544 59.8289 61.8468 59.8931 61.8317 59.9554L61.8336 59.9497L61.5504 60.988C60.9841 63.252 60.6072 64.8874 60.4197 65.8942C60.3253 66.2208 60.2724 66.5965 60.2724 66.9853C60.2724 67.0665 60.2743 67.1458 60.28 67.2251V67.2138C60.3115 67.5913 60.3586 67.7801 60.4216 67.7801C60.4845 67.7801 60.6097 67.5913 60.7972 67.2138L61.0804 66.553C61.1433 66.553 61.1433 66.5845 61.0804 66.6474L62.1187 64.4765C64.5727 59.0675 65.8935 56.0471 66.081 55.4154L66.6473 53.6239C66.7103 53.4981 66.962 53.3728 67.4024 53.2482C67.8498 53.1274 68.3614 53.0576 68.89 53.0576C68.9334 53.0576 68.9768 53.0576 69.0183 53.0595H69.0127C69.8936 53.0595 70.3341 53.2797 70.3341 53.7202L70.2397 54.1921C70.0283 54.7735 69.8187 55.5003 69.6564 56.2441L69.6356 56.363C69.5979 56.6065 69.5752 56.8859 69.5752 57.1729C69.5752 57.5542 69.613 57.9261 69.6866 58.2866L69.6809 58.2508L69.7753 58.6264C69.9679 59.4136 70.2605 60.1045 70.6437 60.735L70.6248 60.7029C71.3787 59.4457 72.1023 58.1564 72.7957 56.835C73.3432 55.9232 73.8529 54.866 74.2625 53.7598L74.3059 53.6277C74.4475 52.916 74.6098 52.3157 74.8081 51.7305L74.7778 51.8362C74.8408 51.6474 75.1095 51.5059 75.5839 51.4115C76.0332 51.3209 76.5485 51.2699 77.0752 51.2699H77.1432H77.1394C78.0204 51.2699 78.4904 51.4901 78.5496 51.9306L78.3608 52.3063C78.1361 52.9405 77.9398 53.7032 77.8077 54.4866L77.7963 54.5716C77.7794 54.7547 77.768 54.9661 77.768 55.1813C77.768 55.6325 77.8133 56.0742 77.8983 56.5008L77.8907 56.4574V56.8331C78.1078 57.6561 78.4306 58.3791 78.8535 59.0342L78.8346 59.004L79.1178 59.6647C80.694 58.8907 82.5478 58.4376 84.5073 58.4376H84.5809H84.5771L84.5752 58.4433ZM44.1039 72.1351C45.4159 70.7797 46.2258 68.9297 46.2258 66.891C46.2258 66.1038 46.1049 65.3449 45.8822 64.6313L45.8973 64.6842L44.3871 65.6281C42.8467 66.5059 41.5139 67.4856 40.3077 68.5994L40.3228 68.5862C39.4072 69.4281 38.7314 70.5173 38.3992 71.7462L38.3878 71.7934C38.1047 72.9575 38.2463 73.7126 38.8126 74.0587C39.158 74.2173 39.5639 74.3098 39.9887 74.3098C40.453 74.3098 40.8929 74.2003 41.2799 74.004L41.2629 74.0115C42.3842 73.6038 43.3337 72.9563 44.0888 72.1276L44.0945 72.1219L44.1039 72.1351ZM56.7461 63.4439C57.0608 62.6259 57.4068 61.6506 57.7844 60.5179C58.2878 59.0077 58.4608 58.1274 58.3035 57.877C58.1462 57.6265 57.8473 57.5951 57.4068 57.7826C56.8821 58.0374 56.4422 58.3867 56.0911 58.8152L56.0854 58.8227C55.6928 59.3192 55.319 59.8742 54.9868 60.4575L54.9528 60.5217C54.5715 61.1466 54.2487 61.8658 54.024 62.6284L54.007 62.6926C53.6427 63.6799 53.4313 64.822 53.4313 66.0113C53.4313 66.1717 53.435 66.3303 53.4426 66.4889V66.4662C53.5055 67.7235 53.7069 68.3999 54.0467 68.4955C54.3865 68.5912 54.7797 68.135 55.2265 67.1269C55.6588 66.3473 56.0439 65.4412 56.3308 64.4916L56.3573 64.3897C56.5448 63.9442 56.6731 63.6289 56.7424 63.4439H56.7461ZM67.2156 68.4465C68.5238 67.8594 69.445 66.6229 69.5733 65.1599L69.5752 65.1448V65.0504L68.537 66.3718L66.6511 68.4483C66.6228 68.471 66.6039 68.505 66.6039 68.5427C66.6039 68.5805 66.6228 68.6145 66.6492 68.6371C66.7096 68.6988 66.8984 68.6359 67.2156 68.4483V68.4465ZM75.331 66.6531C76.7581 66.2454 77.785 64.9522 77.785 63.4213C77.785 63.3967 77.785 63.3722 77.785 63.3477V63.3514C77.7661 62.9739 77.6982 62.619 77.5868 62.283L77.5944 62.3113C76.86 62.9645 76.2578 63.746 75.8218 64.6276L75.801 64.671C75.2334 65.8024 75.0749 66.4618 75.3253 66.6493L75.331 66.6531Z" fill="#F0F0F0"/>
</svg>
