<svg width="125" height="148" viewBox="0 0 125 148" fill="none" xmlns="http://www.w3.org/2000/svg">
<path d="M19.7465 106.383H27.8777L29.7299 108.235V111.865L28.989 112.624L30.3041 113.958V117.348L28.3037 119.348H19.7465V106.383ZM26.5811 111.81L27.2479 111.143V109.142L26.5997 108.494H22.2099V111.81H26.5811ZM27.0257 117.237L27.8221 116.44V114.625L27.0257 113.828H22.2099V117.237H27.0257ZM31.877 117.422V112.05L33.7848 110.124H39.0821L40.9899 112.05V117.422L39.0821 119.348H33.7848L31.877 117.422ZM37.8967 117.311L38.545 116.662V112.81L37.8967 112.161H34.9702L34.3219 112.81V116.662L34.9702 117.311H37.8967ZM42.8383 117.422V112.05L44.7461 110.124H50.0434L51.9512 112.05V117.422L50.0434 119.348H44.7461L42.8383 117.422ZM48.858 117.311L49.5063 116.662V112.81L48.858 112.161H45.9315L45.2833 112.81V116.662L45.9315 117.311H48.858ZM54.5471 117.459V112.18H52.8801V110.124H54.5841V107.123H56.992V110.124H59.8073V112.198H56.992V116.662L57.6217 117.274H59.8073V119.348H56.4548L54.5471 117.459ZM60.8294 117.533V116.403H63.2373V116.922L63.6448 117.348H66.6453L67.0528 116.922V116.125L66.6268 115.681H62.6446L60.9035 113.921V111.902L62.6631 110.124H67.4788L69.2755 111.939V113.069H66.8676V112.55L66.4601 112.124H63.7188L63.3114 112.55V113.273L63.7374 113.717H67.7196L69.4607 115.477V117.57L67.7011 119.348H62.626L60.8294 117.533ZM72.0562 117.459V112.18H70.3893V110.124H72.0933V107.123H74.5012V110.124H77.3165V112.198H74.5012V116.662L75.1309 117.274H77.3165V119.348H73.964L72.0562 117.459ZM78.8921 110.124H81.1518V111.661L82.6335 110.124H85.2637V112.198H83.1336L81.337 114.051V119.348H78.8921V110.124ZM85.7228 117.644V115.532L87.4269 113.828H92.113V112.662L91.5388 112.087H88.7604L88.2048 112.662V113.18H85.7969V112.124L87.7788 110.124H92.539L94.5208 112.124V119.348H92.3167V118.033L90.9461 119.348H87.4269L85.7228 117.644ZM90.7794 117.459L92.113 116.181V115.57H88.6308L88.1307 116.07V116.996L88.5938 117.459H90.7794ZM96.6545 110.124H98.9142V111.476L100.266 110.124H103.86L105.767 112.05V117.422L103.86 119.348H100.285L99.0994 118.366V123.275H96.6545V110.124ZM102.674 117.274L103.322 116.625V112.847L102.674 112.198H100.581L99.0994 113.699V115.958L100.563 117.274H102.674Z" fill="#F0F0F0"/>
<g clip-path="url(#clip0_394_3453)">
<path fill-rule="evenodd" clip-rule="evenodd" d="M45.8556 30.0984C42.5089 30.0984 40.033 33.0016 40.1437 36.1499C40.25 39.1742 40.1119 43.0917 39.1166 46.286C38.1184 49.4901 36.4306 51.5154 33.6733 51.7757V54.7265C36.4307 54.9867 38.1184 57.012 39.1166 60.2162C40.1119 63.4104 40.25 67.328 40.1438 70.3524C40.033 73.5006 42.5089 76.4037 45.8556 76.4037H80.1487C83.4954 76.4037 85.9713 73.5006 85.8606 70.3524C85.7543 67.328 85.8923 63.4104 86.8875 60.2162C87.8859 57.012 89.5694 54.9867 92.3267 54.7265V51.7757C89.5694 51.5154 87.8859 49.4901 86.8875 46.286C85.8923 43.0917 85.7543 39.1742 85.8606 36.1499C85.9713 33.0016 83.4954 30.0984 80.1487 30.0984H45.8556ZM72.9551 58.5968C72.9551 62.9319 69.6901 65.5602 64.2719 65.5602H54.0532V40.9322H64.219C68.7371 40.9322 71.7021 43.3558 71.7021 47.0765C71.7021 49.6877 69.7078 52.0259 67.1663 52.4355V52.572C70.6255 52.9476 72.9551 55.3199 72.9551 58.5968ZM63.266 44.0555H58.0065V51.4114H62.4365C65.8604 51.4114 67.7487 50.0461 67.7487 47.6054C67.7487 45.3184 66.1251 44.0555 63.266 44.0555ZM58.0065 54.33V62.437H63.46C67.0252 62.437 68.9135 61.0204 68.9135 58.3579C68.9135 55.6954 66.9721 54.33 63.2306 54.33H58.0065Z" fill="#F0F0F0"/>
</g>
<defs>
<clipPath id="clip0_394_3453">
<rect width="58.6534" height="46.3053" fill="white" transform="translate(33.6733 30.0984)"/>
</clipPath>
</defs>
</svg>
