<svg width="125" height="149" viewBox="0 0 125 149" fill="none" xmlns="http://www.w3.org/2000/svg">
<rect width="125" height="148" transform="translate(0 0.0490723)" fill="white" fill-opacity="0.1"/>
<path d="M39.356 118.641V109.617L41.564 107.409H48.1304L50.3 109.579V111.633H47.6888V110.539L46.7864 109.636H42.9464L41.9672 110.615V117.643L42.9464 118.622H46.7864L47.6888 117.719V116.625H50.3V118.679L48.1304 120.849H41.564L39.356 118.641ZM51.8413 118.775V116.855H54.4141V117.988L55.0477 118.622H59.0221L59.6749 117.969V115.742L59.0413 115.108H53.9533L51.8797 113.035V109.483L53.9533 107.409H60.0205L62.0941 109.483V111.422H59.5213V110.27L58.8877 109.636H55.0861L54.4525 110.27V112.247L55.0861 112.881H60.1741L62.2477 114.955V118.737L60.1357 120.849H53.9149L51.8413 118.775ZM64.0663 118.775V116.855H66.6391V117.988L67.2727 118.622H71.2471L71.8999 117.969V115.742L71.2663 115.108H66.1783L64.1047 113.035V109.483L66.1783 107.409H72.2455L74.3191 109.483V111.422H71.7463V110.27L71.1127 109.636H67.3111L66.6775 110.27V112.247L67.3111 112.881H72.3991L74.4727 114.955V118.737L72.3607 120.849H66.1399L64.0663 118.775ZM76.0033 118.775V116.663H78.6145V117.988L79.2481 118.622H82.7041L83.3377 117.988V115.819L82.7233 115.204H78.8833V112.977H82.7233L83.3377 112.363V110.27L82.7041 109.636H79.3633L78.7297 110.27V111.595H76.1185V109.483L78.1921 107.409H83.8753L85.9489 109.483V113.131L84.9697 114.091L85.9489 115.07V118.775L83.8753 120.849H78.0769L76.0033 118.775Z" fill="#F0F0F0"/>
<path d="M89.5993 24.9081L84.5744 79.3358L62.8035 85.1977L41.0323 79.3358L36.0084 24.9081H89.5993ZM79.4738 35.9751H62.7839H45.7984L46.6107 42.5478H62.7839H63.6924L62.7839 42.9259L47.2018 49.4157L47.7186 55.8403L62.7839 55.8892L70.8585 55.9148L70.3416 64.4811L62.7838 66.609V66.6022L62.7219 66.6195L55.4229 64.7769L54.98 59.4594H54.9558H48.1857H48.1618L49.048 69.7248L62.784 73.7869V73.7795L62.8088 73.7869L76.4712 69.7988L78.2435 49.4157H62.784H62.7459L62.784 49.3992L78.8098 42.5478L79.4738 35.9751Z" fill="#F0F0F0"/>
</svg>
