<svg width="125" height="148" viewBox="0 0 125 148" fill="none" xmlns="http://www.w3.org/2000/svg">
<rect width="125" height="148" fill="white" fill-opacity="0.1"/>
<path d="M33.7197 106.383H36.2387V111.81H41.7213V106.383H44.2403V119.348H41.7213V113.958H36.2387V119.348H33.7197V106.383ZM49.5976 108.513H45.7265V106.383H55.9878V108.513H52.1166V119.348H49.5976V108.513ZM57.4692 106.383H59.803L63.6556 114.755H63.6927L67.5638 106.383H69.8976V119.348H67.4712V111.458H67.4341L64.4521 117.533H62.8962L59.9327 111.458H59.8956V119.348H57.4692V106.383ZM72.3014 106.383H74.8204V117.218H81.3031V119.348H72.3014V106.383ZM82.3135 117.348V115.236H84.8325V116.588L85.4437 117.199H88.7406L89.3519 116.588V113.662L88.7406 113.051H82.4987V106.383H91.6116V108.531H84.9807V110.902H89.852L91.8709 112.921V117.348L89.8705 119.348H84.3139L82.3135 117.348Z" fill="#F0F0F0"/>
<path d="M46.0515 23.9243H48.6715V26.5128H51.0682V23.9243H53.6883V31.7629H51.0683V29.1381H48.6716V31.7629H46.0517L46.0515 23.9243ZM57.1334 26.5238H54.8273V23.9243H62.0615V26.5238H59.7539V31.7629H57.1339V26.5238H57.1334ZM63.2095 23.9243H65.9414L67.6218 26.6786L69.3006 23.9243H72.0336V31.7629H69.4243V27.8776L67.6218 30.6647H67.5766L65.773 27.8776V31.7629H63.2095V23.9243ZM73.3374 23.9243H75.9582V29.172H79.6426V31.7629H73.3373V23.9243H73.3374Z" fill="#F0F0F0"/>
<path fill-rule="evenodd" clip-rule="evenodd" d="M79.6498 77.3768L83.4015 35.3478H42.22L45.9678 77.3833L62.7855 82.0521L79.6498 77.3768ZM62.7931 59.5307H69.1415L68.543 66.2169L62.793 67.7689V67.7691L62.7883 67.7703L57.0467 66.22L56.6796 62.1083H51.5043L52.2265 70.2032L62.7872 73.1347L62.8109 73.1282V73.1275L73.362 70.2034L73.4395 69.3323L74.6512 55.7596L74.7769 54.3752H62.8109V54.375H55.9889L55.5177 49.0957H62.7931V49.0959H75.246L75.3494 47.9372L75.5844 45.3235L75.7076 43.9404H62.8109V43.9402H49.8834L50.0067 45.3233L51.2739 59.5305H62.7931V59.5307Z" fill="#F0F0F0"/>
</svg>
