<svg width="43" height="43" viewBox="0 0 43 43" fill="none" xmlns="http://www.w3.org/2000/svg">
<path d="M39.2773 16.4277C39.5664 16.2109 40 16.4277 40 16.7891V31.5312C40 33.4824 38.4102 35 36.5312 35H6.46875C4.51758 35 3 33.4824 3 31.5312V16.7891C3 16.4277 3.36133 16.2109 3.65039 16.4277C5.3125 17.7285 7.4082 19.3184 14.7793 24.666C16.2969 25.75 18.8984 28.1348 21.5 28.1348C24.0293 28.1348 26.7031 25.75 28.1484 24.666C35.5195 19.3184 37.6152 17.7285 39.2773 16.4277ZM21.5 25.75C19.7656 25.8223 17.3809 23.6543 16.1523 22.7871C6.54102 15.8496 5.81836 15.1992 3.65039 13.4648C3.2168 13.1758 3 12.6699 3 12.0918V10.7188C3 8.83984 4.51758 7.25 6.46875 7.25H36.5312C38.4102 7.25 40 8.83984 40 10.7188V12.0918C40 12.6699 39.7109 13.1758 39.2773 13.4648C37.1094 15.1992 36.3867 15.8496 26.7754 22.7871C25.5469 23.6543 23.1621 25.8223 21.5 25.75Z" fill="#F0F0F0"/>
</svg>
