<svg width="125" height="148" viewBox="0 0 125 148" fill="none" xmlns="http://www.w3.org/2000/svg">
<path d="M51.0168 117.218V108.513L53.1468 106.383H59.5925L61.6855 108.476V110.457H59.1665V109.402L58.296 108.531H54.4804L53.5358 109.476V116.255L54.4804 117.2H58.333L59.2406 116.292V114.273H56.4623V112.124H61.6855V117.218L59.5555 119.348H53.1468L51.0168 117.218ZM63.5337 108.198V107.012L64.3857 106.16H65.6822L66.5343 107.012V108.198L65.6822 109.05H64.3857L63.5337 108.198ZM63.8115 110.124H66.2564V119.348H63.8115V110.124ZM69.5063 117.459V112.18H67.8393V110.124H69.5434V107.123H71.9512V110.124H74.7666V112.199H71.9512V116.662L72.581 117.274H74.7666V119.348H71.4141L69.5063 117.459Z" fill="#F0F0F0"/>
<path d="M87.8425 49.4963L65.9832 27.637C65.0562 26.7054 63.8352 26.2397 62.6143 26.2397C61.3934 26.2397 60.1724 26.7054 59.2454 27.637L54.9224 31.96L60.2719 37.3095C62.0491 36.2649 64.3643 36.491 65.8882 38.0149C67.4121 39.5389 67.6337 41.8541 66.5891 43.6267L71.8482 48.8858C73.6254 47.8412 75.9406 48.0673 77.4645 49.5913C79.2733 51.4001 79.2733 54.3303 77.4645 56.1391C75.6557 57.9479 72.7255 57.9479 70.9167 56.1391C69.3928 54.6152 69.1667 52.2999 70.2113 50.5228L64.9522 45.2637C64.5769 45.4853 64.1834 45.6481 63.7719 45.7521V59.9738C65.7661 60.4893 67.2448 62.2845 67.2448 64.4415C67.2448 67.001 65.1738 69.072 62.6143 69.072C60.0549 69.072 57.9838 67.001 57.9838 64.4415C57.9838 62.2845 59.4625 60.4893 61.4567 59.9738V45.7521C60.6834 45.5531 59.9463 45.1687 59.3404 44.5628C57.8165 43.0389 57.5949 40.7236 58.6395 38.951L53.2854 33.5969L37.3861 49.4963C35.523 51.3548 35.523 54.3755 37.3861 56.2341L59.2454 78.0934C60.1724 79.025 61.3934 79.4907 62.6143 79.4907C63.8352 79.4907 65.0562 79.025 65.9832 78.0934L87.8425 56.2341C89.7056 54.3755 89.7056 51.3548 87.8425 49.4963Z" fill="white"/>
</svg>
