<svg width="43" height="43" viewBox="0 0 43 43" fill="none" xmlns="http://www.w3.org/2000/svg">
<path d="M15.502 31.3867C15.502 31.5312 15.3574 31.6035 15.1406 31.6035C14.9238 31.6758 14.7793 31.5312 14.7793 31.3867C14.7793 31.2422 14.9238 31.0977 15.1406 31.0977C15.3574 31.0977 15.502 31.2422 15.502 31.3867ZM13.2617 31.0254C13.334 30.8809 13.5508 30.8086 13.7676 30.8809C13.9844 30.9531 14.0566 31.0977 14.0566 31.2422C13.9844 31.3867 13.7676 31.459 13.623 31.3867C13.4062 31.3867 13.2617 31.1699 13.2617 31.0254ZM16.5137 30.9531C16.6582 30.8809 16.875 31.0254 16.875 31.1699C16.9473 31.3145 16.8027 31.3867 16.5859 31.459C16.3691 31.5312 16.1523 31.459 16.1523 31.3145C16.1523 31.0977 16.2969 30.9531 16.5137 30.9531ZM21.2109 3.20312C31.2559 3.20312 39.4219 10.8633 39.4219 20.8359C39.4219 28.8574 34.5078 35.7227 27.2812 38.1074C26.3418 38.3242 25.9805 37.7461 25.9805 37.2402C25.9805 36.6621 26.0527 33.627 26.0527 31.2422C26.0527 29.5078 25.4746 28.4238 24.8242 27.8457C28.8711 27.4121 33.1348 26.834 33.1348 19.8965C33.1348 17.873 32.4121 16.9336 31.2559 15.6328C31.4004 15.127 32.0508 13.248 31.0391 10.7188C29.5215 10.2129 26.0527 12.6699 26.0527 12.6699C24.6074 12.2363 23.0898 12.0918 21.5 12.0918C19.9824 12.0918 18.4648 12.2363 17.0195 12.6699C17.0195 12.6699 13.4785 10.2852 12.0332 10.7188C11.0215 13.248 11.5996 15.127 11.8164 15.6328C10.6602 16.9336 10.082 17.873 10.082 19.8965C10.082 26.834 14.2012 27.4121 18.248 27.8457C17.6699 28.3516 17.2363 29.1465 17.0918 30.3027C16.0078 30.8086 13.4062 31.6035 11.8164 28.7852C10.8047 27.0508 8.99805 26.9062 8.99805 26.9062C7.26367 26.9062 8.92578 28.0625 8.92578 28.0625C10.082 28.5684 10.877 30.6641 10.877 30.6641C11.9609 33.916 17.0195 32.832 17.0195 32.832C17.0195 34.3496 17.0195 36.8066 17.0195 37.3125C17.0195 37.7461 16.7305 38.3242 15.791 38.1797C8.56445 35.7227 3.57812 28.8574 3.57812 20.8359C3.57812 10.8633 11.2383 3.20312 21.2109 3.20312ZM10.5879 28.1348C10.6602 28.0625 10.8047 28.1348 10.9492 28.207C11.0938 28.3516 11.0938 28.5684 11.0215 28.6406C10.877 28.7129 10.7324 28.6406 10.5879 28.5684C10.5156 28.4238 10.4434 28.207 10.5879 28.1348ZM9.79297 27.5566C9.86523 27.4844 9.9375 27.4844 10.082 27.5566C10.2266 27.6289 10.2988 27.7012 10.2988 27.7734C10.2266 27.918 10.082 27.918 9.9375 27.8457C9.79297 27.7734 9.7207 27.7012 9.79297 27.5566ZM12.1055 30.1582C12.25 30.0137 12.4668 30.0859 12.6113 30.2305C12.7559 30.375 12.7559 30.5918 12.6836 30.6641C12.6113 30.8086 12.3945 30.7363 12.25 30.5918C12.0332 30.4473 12.0332 30.2305 12.1055 30.1582ZM11.3105 29.0742C11.4551 29.002 11.5996 29.0742 11.7441 29.2188C11.8164 29.3633 11.8164 29.5801 11.7441 29.6523C11.5996 29.7246 11.4551 29.6523 11.3105 29.5078C11.166 29.3633 11.166 29.1465 11.3105 29.0742Z" fill="#F0F0F0"/>
</svg>
