<svg width="43" height="43" viewBox="0 0 43 43" fill="none" xmlns="http://www.w3.org/2000/svg">
<path d="M12.5391 35H5.81836V13.3926H12.5391V35ZM9.14258 10.502C7.04688 10.502 5.3125 8.69531 5.3125 6.52734C5.3125 4.43164 7.04688 2.69727 9.14258 2.69727C11.3105 2.69727 13.0449 4.43164 13.0449 6.52734C13.0449 8.69531 11.3105 10.502 9.14258 10.502ZM37.6152 35H30.9668V24.5215C30.9668 21.9922 30.8945 18.8125 27.4258 18.8125C23.957 18.8125 23.4512 21.4863 23.4512 24.3047V35H16.7305V13.3926H23.1621V16.3555H23.2344C24.1738 14.6934 26.3418 12.8867 29.5938 12.8867C36.3867 12.8867 37.6875 17.3672 37.6875 23.1484V35H37.6152Z" fill="#F0F0F0"/>
</svg>
