<svg width="125" height="148" viewBox="0 0 125 148" fill="none" xmlns="http://www.w3.org/2000/svg">
<path d="M35.2871 117.348V115.495H37.7691V116.588L38.3803 117.2H42.2144L42.8441 116.57V114.421L42.2329 113.81H37.3245L35.3241 111.81V108.383L37.3245 106.383H43.1775L45.1779 108.383V110.254H42.6959V109.142L42.0847 108.531H38.4173L37.8061 109.142V111.05L38.4173 111.661H43.3257L45.3261 113.662V117.311L43.2886 119.348H37.2875L35.2871 117.348ZM46.99 117.459V112.013L48.8608 110.124H53.9358L55.8436 112.05V113.754H53.3987V112.847L52.7504 112.199H50.0832L49.4349 112.847V116.625L50.0832 117.274H52.7504L53.3987 116.625V115.718H55.8436V117.422L53.9358 119.348H48.8608L46.99 117.459ZM57.5035 110.124H59.7632V111.661L61.245 110.124H63.8751V112.199H61.7451L59.9484 114.051V119.348H57.5035V110.124ZM64.9898 117.403V110.124H67.4347V116.644L68.0644 117.274H69.5462L71.3614 115.458V110.124H73.8063V119.348H71.5466V117.774L69.9537 119.348H66.9346L64.9898 117.403ZM76.0256 110.124H78.2853V111.643L79.7856 110.124H82.1194L83.3789 111.402L84.6384 110.124H87.8612L89.8431 112.124V119.348H87.3982V112.847L86.7684 112.199H85.2126L84.2309 113.18V119.348H81.8601V112.81L81.2674 112.199H80.156L78.4705 113.903V119.348H76.0256V110.124Z" fill="#F0F0F0"/>
<path d="M48.6483 51.8033C48.7664 51.2721 48.907 50.7468 49.07 50.2274C49.2331 49.7087 49.4179 49.1973 49.6238 48.6938C49.8299 48.1907 50.0573 47.6967 50.3056 47.2131C50.5537 46.7287 50.8223 46.2563 51.1108 45.7951C51.3886 45.3524 51.6823 44.9196 51.9912 44.498C52.3007 44.0769 52.6256 43.6674 52.9653 43.2704C53.3046 42.8732 53.659 42.4887 54.0273 42.1173C54.395 41.7463 54.7765 41.3893 55.1711 41.0469C54.8688 41.3092 54.5744 41.5802 54.288 41.8596C54.0022 42.1391 53.7237 42.4272 53.4537 42.7226C53.1838 43.0179 52.9231 43.3212 52.6703 43.6324C52.4182 43.943 52.1747 44.2608 51.941 44.5852C52.1067 44.354 52.2776 44.1267 52.4552 43.904C52.6327 43.6813 52.8155 43.4633 53.0043 43.2499C53.1924 43.0364 53.3864 42.8283 53.5857 42.6255C53.7851 42.4219 53.9897 42.2244 54.1995 42.0314C54.4114 41.8378 54.6279 41.6489 54.8496 41.4665C55.0707 41.2835 55.2971 41.1064 55.5275 40.9353C55.7578 40.7641 55.9928 40.5989 56.2317 40.4397C56.4706 40.2805 56.7135 40.1272 56.9603 39.9805C56.8732 40.067 56.7848 40.1523 56.695 40.2362C56.6052 40.3201 56.5142 40.4027 56.4224 40.484C56.3307 40.5652 56.2376 40.6452 56.1432 40.7245C56.0495 40.8031 55.9538 40.8804 55.8575 40.9571C55.4555 41.3026 55.1123 41.6482 55.0589 41.8623C54.5276 42.3429 54.0197 42.8487 53.5369 43.3781C53.0538 43.9067 52.5958 44.4584 52.1648 45.0313C51.7345 45.6041 51.3312 46.1968 50.9563 46.8074C50.5821 47.4186 50.2369 48.0469 49.9221 48.6912C49.606 49.3374 49.3235 50.0001 49.0747 50.6754C48.8265 51.3507 48.6127 52.0385 48.4345 52.7356C48.0783 54.1313 47.8656 55.5598 47.7995 56.9988C47.7382 56.7609 47.6933 56.5191 47.6656 56.2746C47.6378 56.0301 47.6273 55.7843 47.6345 55.5385C47.6477 55.0464 47.7299 54.5587 47.8787 54.0895C48.1223 53.2702 48.4642 52.5757 48.6483 51.8033ZM62.8112 37.5007C62.2759 37.6698 61.7465 37.8571 61.2239 38.0623C61.3513 38.0035 61.4806 37.9473 61.6107 37.8945C61.7407 37.8416 61.872 37.7921 62.0047 37.7451C62.1373 37.6982 62.2707 37.6546 62.4053 37.6137C62.5399 37.5727 62.6752 37.535 62.8112 37.5007ZM69.4976 75.0802C70.0844 75.0162 70.6678 74.9263 71.2229 74.8364C71.0816 74.8701 70.9391 74.8999 70.7965 74.927C70.6533 74.9534 70.5101 74.9772 70.3655 74.9977C70.2216 75.0175 70.0771 75.0347 69.9326 75.0485C69.788 75.0624 69.6428 75.073 69.4976 75.0802ZM49.5545 59.2229L49.8119 60.1823C49.9043 60.8087 50.027 61.4304 50.1802 62.0456C50.3326 62.6601 50.5141 63.2673 50.7253 63.8647C51.147 65.0602 51.683 66.2121 52.3258 67.3045C52.136 66.9987 51.9533 66.6885 51.778 66.3742C51.6031 66.0597 51.4348 65.7412 51.2744 65.4187C51.1147 65.0963 50.9616 64.7705 50.8171 64.4408C50.6719 64.1118 50.5346 63.7788 50.4052 63.4424C50.2759 63.1061 50.161 62.7645 50.06 62.4183C49.9597 62.072 49.8739 61.7218 49.8026 61.369C49.7314 61.0155 49.6746 60.6593 49.6337 60.3012C49.5921 59.9431 49.5657 59.583 49.5545 59.2229ZM49.9564 56.5363C49.9597 55.927 50.0026 55.3185 50.0838 54.7152C50.165 54.1113 50.2844 53.5133 50.4422 52.9253C50.5993 52.3365 50.7946 51.759 51.0256 51.1954C51.2566 50.6324 51.5239 50.084 51.8255 49.5548C51.5384 50.0906 51.2824 50.6424 51.0586 51.2073C50.8355 51.7729 50.6448 52.3504 50.4877 52.9371C50.33 53.5246 50.2072 54.1199 50.1181 54.7212C50.0297 55.3225 49.9756 55.9284 49.9564 56.5363ZM81.6865 64.5776C81.6383 64.5604 81.6244 64.5069 81.6264 64.4428C81.631 64.4296 81.6356 64.4151 81.6389 64.4012C81.6422 64.3866 81.6455 64.3728 81.6475 64.3582C81.6495 64.3437 81.6508 64.3292 81.6508 64.314C81.6515 64.2994 81.6515 64.2849 81.6502 64.2704C81.7637 64.1025 81.8746 63.9327 81.9821 63.7603C82.0891 63.5885 82.1933 63.414 82.2943 63.2383C82.3946 63.0625 82.4923 62.8841 82.586 62.705C82.6804 62.5253 82.7708 62.3436 82.858 62.1606C82.8533 62.2115 82.8474 62.2617 82.8401 62.3119C82.8335 62.3628 82.8256 62.413 82.817 62.4632C82.8085 62.5134 82.7992 62.563 82.7887 62.6132C82.7781 62.6627 82.7669 62.7123 82.7543 62.7619C82.7134 62.8365 82.6712 62.9105 82.627 62.9832C82.5389 63.1292 82.4447 63.2714 82.3445 63.4094C82.2943 63.4788 82.2428 63.5468 82.19 63.6136C82.1379 63.6876 82.0877 63.7629 82.0402 63.8395C81.9927 63.9169 81.9485 63.9955 81.9062 64.0754C81.8647 64.156 81.8257 64.2373 81.7894 64.3206C81.7531 64.4032 81.7201 64.4877 81.6898 64.573M68.8508 75.1199L68.7888 75.1463C68.5868 75.1602 68.3862 75.1734 68.1882 75.1807L68.1156 75.1635C68.3605 75.1463 68.604 75.1305 68.8508 75.1199ZM81.1103 65.4366C81.0892 65.4247 81.068 65.4148 81.0456 65.4055C81.0238 65.3969 81.0007 65.3897 80.9776 65.3844C80.9545 65.3791 80.9308 65.3751 80.907 65.3732C80.8832 65.3712 80.8595 65.3712 80.8357 65.3725C81.1202 65.0269 81.3914 64.6576 81.6449 64.2823L81.6389 64.3226C81.637 64.3358 81.635 64.349 81.6337 64.3622C81.6317 64.3761 81.6304 64.3893 81.629 64.4025C81.6277 64.4164 81.6271 64.4296 81.6264 64.4428C81.5347 64.7402 81.2 65.0897 81.1083 65.4366M72.6603 70.7226C72.395 70.8072 72.203 71.0523 72.0842 71.1336C71.3423 71.1838 70.6104 71.1871 69.7649 71.1805C69.6376 71.2426 69.363 71.2651 69.1043 71.3721C68.9452 71.2994 68.7782 71.2406 68.602 71.1805C69.0785 71.1858 69.5557 71.1686 70.0302 71.129C70.5054 71.0893 70.9787 71.0272 71.4479 70.9433C71.9172 70.8594 72.3825 70.7537 72.8418 70.6261C73.3012 70.4986 73.754 70.3499 74.1995 70.1801C74.076 70.2363 73.9513 70.2905 73.8259 70.3413C73.6998 70.3929 73.5731 70.4405 73.4451 70.486C73.317 70.531 73.1877 70.5739 73.0577 70.6129C72.9283 70.6526 72.797 70.6889 72.6656 70.7226" fill="#A1A1A1"/>
<path d="M64.133 40.3881C65.5427 39.9322 67.1544 39.7921 68.7226 39.8529C70.2914 39.9131 71.8286 40.143 73.2918 40.293C71.7012 39.6607 69.6598 39.3052 67.9425 39.2133C66.2258 39.1215 64.8577 39.1889 64.5006 38.8433C64.1435 38.4977 65.3771 38.1522 67.0884 38.0867C67.3168 38.0801 67.5452 38.0782 67.7729 38.0808C68.0012 38.0834 68.2289 38.0907 68.4573 38.1019C68.685 38.1132 68.9127 38.129 69.1397 38.1495C69.3668 38.1693 69.5938 38.1944 69.8202 38.2229C70.7363 38.3339 71.6075 38.5063 72.3137 38.6411C71.9566 38.4806 71.9566 38.4806 71.5943 38.3306C71.9579 38.4806 72.3137 38.6358 72.6654 38.6173C72.323 38.4644 71.9742 38.3262 71.62 38.203C71.5019 38.1621 71.3837 38.1224 71.2643 38.0848C70.7574 37.9123 70.2809 37.7583 70.0723 37.6097C70.3119 37.5595 70.5515 37.5198 70.795 37.4802C69.8222 37.0513 68.3259 36.789 66.802 36.7461C65.2787 36.7025 63.7376 36.8392 62.609 36.8564C63.31 36.7765 64.0129 36.7223 64.7177 36.6945C65.422 36.6661 66.1275 36.6648 66.8324 36.6893C67.5366 36.7137 68.2401 36.7646 68.9411 36.8412C69.642 36.9185 70.3396 37.0216 71.0333 37.1498C71.7764 37.2912 72.513 37.4696 73.239 37.6837C73.965 37.8971 74.6797 38.1475 75.3813 38.4317C76.0822 38.7164 76.7693 39.0362 77.4392 39.3884C78.1091 39.741 78.7611 40.1267 79.3928 40.5441C80.0508 40.9789 80.6837 41.4513 81.2876 41.9587C81.8915 42.4662 82.4657 43.0074 83.0083 43.5809C83.5501 44.1538 84.059 44.7577 84.5322 45.3894C85.0047 46.021 85.4417 46.6792 85.8396 47.3604C86.235 48.0396 86.5894 48.742 86.9009 49.4636C87.2124 50.1851 87.4797 50.9245 87.7022 51.6784C87.9252 52.4323 88.1021 53.1988 88.2328 53.9738C88.3635 54.7489 88.448 55.5312 88.4849 56.3162C88.6017 57.9873 88.5351 59.6649 88.2863 61.3207C88.0367 62.9766 87.6065 64.6001 87.0032 66.1621C86.4 67.7234 85.6265 69.2141 84.6978 70.6063C83.7692 71.9985 82.6901 73.285 81.481 74.4413C81.2995 74.5926 81.1134 74.7393 80.924 74.8807C80.7346 75.0227 80.5418 75.1595 80.3452 75.2904C79.9518 75.5536 79.5447 75.7956 79.1255 76.0152C78.8687 76.1533 78.6094 76.2854 78.3467 76.4123C78.084 76.5385 77.8187 76.6588 77.5507 76.7731C77.2821 76.8874 77.0115 76.9951 76.7383 77.0968C76.4657 77.1986 76.1905 77.2944 75.9126 77.3836C72.4344 78.7798 68.5675 79.2707 64.7646 78.9265C60.7201 78.4084 56.9291 76.5821 53.8938 73.8625C50.8591 71.1422 48.5155 67.514 47.2166 63.3856C46.9486 62.5649 46.9196 61.5157 47.0958 61.2064C47.1816 61.0512 47.311 61.0756 47.4852 61.3796C47.6594 61.6835 47.8838 62.2782 48.2429 63.2316C48.5531 64.014 48.9029 64.7798 49.2896 65.5271C49.6757 66.2737 50.0994 67.0012 50.5588 67.7062C51.0181 68.4106 51.5119 69.0918 52.0385 69.7473C52.5659 70.4028 53.1249 71.0318 53.7143 71.6311C53.4866 71.5816 53.1156 71.2426 52.7447 70.8415C52.6616 70.7457 52.5777 70.6506 52.4919 70.5567C52.3207 70.3692 52.1446 70.1861 51.9639 70.0076C51.8735 69.9191 51.7818 69.8312 51.6887 69.7447C51.8524 69.9918 52.0227 70.2356 52.1989 70.4741C52.3751 70.7133 52.5579 70.9472 52.746 71.1772C52.9341 71.4071 53.1275 71.6318 53.3275 71.8518C53.5268 72.0712 53.7321 72.2859 53.942 72.4954C54.1512 72.7028 54.365 72.905 54.5841 73.1013C54.8033 73.2982 55.0277 73.4891 55.2567 73.6742C55.485 73.8592 55.7187 74.0382 55.9569 74.2113C56.1952 74.3845 56.4374 74.5516 56.6842 74.7122C55.99 74.2599 55.3227 73.7675 54.6858 73.2374C54.367 72.9724 54.0561 72.6989 53.7539 72.4161C53.4509 72.1333 53.1566 71.8412 52.8708 71.5412C53.2424 71.9331 53.6291 72.311 54.0291 72.6738C54.4284 73.0365 54.8415 73.3847 55.2672 73.7171C55.6929 74.0495 56.1305 74.366 56.5793 74.6659C57.0278 74.9665 57.4875 75.2499 57.9574 75.5157C58.9375 76.0707 59.9631 76.5411 61.0231 76.9217C61.5524 77.112 62.0896 77.2805 62.6335 77.4252C63.1773 77.5699 63.7271 77.6915 64.2815 77.79C65.0906 77.9453 65.8259 78.2578 66.6832 78.4672C66.9287 78.532 67.1782 78.5802 67.4297 78.6106C67.6818 78.641 67.9352 78.6542 68.1887 78.6496C68.4428 78.6456 68.6955 78.6238 68.9463 78.5842C69.1965 78.5452 69.4446 78.4884 69.6875 78.415C68.9437 78.4164 68.1999 78.3794 67.46 78.3047C66.72 78.2294 65.9842 78.1165 65.2556 77.9664C64.5271 77.8156 63.8068 77.6277 63.0974 77.4034C62.3879 77.1788 61.691 76.9178 61.0079 76.6218C60.3281 76.3264 59.6628 75.9993 59.014 75.6405C58.3653 75.2824 57.7336 74.8926 57.1225 74.4737C56.5108 74.0548 55.9194 73.6069 55.3504 73.1317C54.7815 72.6559 54.2357 72.1538 53.7143 71.6265C53.7176 71.6265 53.7202 71.6271 53.7228 71.6271H53.7407C53.7433 71.6271 53.7459 71.6265 53.7492 71.6265C53.3004 71.1805 52.8734 70.714 52.4688 70.2283C52.0643 69.7425 51.6826 69.238 51.3251 68.7165C50.9675 68.1949 50.6343 67.6569 50.3265 67.1043C50.0196 66.5513 49.7378 65.9843 49.4837 65.4055C49.8288 66.1158 50.2499 66.8089 50.5634 67.4327C48.9002 64.1151 47.9993 60.5378 48.031 56.9215C48.0858 57.5624 48.1663 58.2007 48.2719 58.8357C48.3782 59.47 48.5095 60.1003 48.6653 60.7241C48.8217 61.3485 49.0032 61.9663 49.2085 62.5755C49.4144 63.1854 49.644 63.786 49.8975 64.3774C50.4119 65.5805 51.0349 66.7341 51.7587 67.8239C52.1204 68.3683 52.5065 68.8963 52.9157 69.4057C53.3248 69.9155 53.7572 70.4063 54.2112 70.8765C55.5795 72.2949 57.148 73.5048 58.8669 74.4677C59.4391 74.7882 60.0265 75.0802 60.6271 75.3432C61.7993 75.8546 63.0213 76.243 64.2736 76.5022C64.8992 76.6323 65.5315 76.7295 66.1671 76.7936C66.8033 76.8583 67.4415 76.8894 68.0811 76.888C66.6865 76.6442 65.0834 76.4784 63.5462 76.1031C62.0091 75.7284 60.5631 75.1549 59.6173 74.3653C60.6297 74.8885 61.6841 75.326 62.7694 75.6729C63.8546 76.0203 64.9671 76.2756 66.0952 76.4361C67.2231 76.5973 68.3629 76.6627 69.5021 76.633C70.6406 76.6026 71.7751 76.4771 72.8931 76.257L71.9117 76.5524C72.2826 76.5233 72.6522 76.4784 73.0198 76.4176C73.3874 76.3575 73.7522 76.2821 74.1135 76.1916C74.4745 76.1004 74.8322 75.9947 75.1846 75.8745C75.5364 75.7535 75.8842 75.6187 76.2248 75.4694C76.5673 75.3194 76.9059 75.1615 77.2405 74.9963C77.5751 74.8305 77.9058 74.6567 78.2318 74.475C78.5585 74.2933 78.88 74.1043 79.1974 73.9067C79.5149 73.7098 79.8277 73.5057 80.1353 73.2936C80.3524 73.1502 80.5682 73.0048 80.7821 72.8515L80.1353 73.2936C79.5862 73.6537 79.0199 73.9867 78.4391 74.292C77.8576 74.5972 77.2623 74.8741 76.6545 75.1219C76.0466 75.3696 75.4275 75.5877 74.7985 75.7753C74.1696 75.9637 73.532 76.1209 72.8878 76.2465C74.0164 75.9009 75.2038 75.5295 76.5924 74.9785C75.7866 75.1509 74.6824 75.4793 73.5538 75.6954C73.1914 75.7886 72.8251 75.8712 72.4575 75.9425C72.0899 76.0139 71.7197 76.074 71.3481 76.1236C70.9772 76.1725 70.6043 76.2108 70.23 76.2379C69.8565 76.2643 69.4823 76.2802 69.1074 76.2848C69.6585 76.2643 70.2076 76.2147 70.7528 76.1355C71.8446 75.977 72.9163 75.7021 73.9498 75.3155C74.4659 75.1219 74.9715 74.9012 75.4645 74.6534C72.5585 75.5956 69.38 75.9907 66.3723 75.5176C66.7855 75.5593 67.1993 75.587 67.6145 75.6009C68.0289 75.6148 68.4441 75.6141 68.8586 75.5996C69.2737 75.585 69.6875 75.5566 70.1007 75.5143C70.5132 75.4721 70.9244 75.4152 71.3336 75.3445C72.0331 75.2626 72.7281 75.1404 73.4145 74.9778C74.7876 74.6531 76.1188 74.1711 77.3818 73.5413C78.0127 73.2262 78.6245 72.8753 79.2152 72.4901L78.9512 72.6857C79.1341 72.5661 79.3103 72.4366 79.4865 72.3104C79.7188 72.1518 79.9478 71.9873 80.1729 71.8174C80.398 71.6483 80.6191 71.4732 80.8362 71.2935C81.0527 71.1131 81.2659 70.9281 81.4738 70.7384C81.6817 70.5481 81.8856 70.3532 82.0849 70.1537C82.5992 69.6039 83.0547 69.0017 83.4439 68.3571C83.5739 68.1423 83.696 67.9236 83.8102 67.7003L84.088 67.2893C83.9778 67.5933 83.9573 67.771 84.3349 67.2893C84.5408 67.0177 84.7355 66.7376 84.9183 66.4502C85.1011 66.1627 85.272 65.868 85.4311 65.5661C85.5902 65.2648 85.7367 64.9569 85.8707 64.6437C86.004 64.3305 86.1254 64.0113 86.233 63.6882C86.7128 62.3542 87.0646 60.9454 87.4408 59.4733C87.6355 58.6976 87.6824 57.6139 87.586 56.4636C87.5985 56.412 87.6071 56.3592 87.6104 56.3063C87.6144 56.2534 87.6137 56.1999 87.6084 56.1471C87.6032 56.0942 87.5933 56.042 87.5794 55.9905C87.5649 55.9396 87.5464 55.8894 87.5233 55.8411C87.4962 55.594 87.4613 55.3456 87.4236 55.0984C87.4091 54.9471 87.3913 54.7965 87.3702 54.6458C87.3491 54.4952 87.3253 54.3452 87.2976 54.1959C87.2699 54.0465 87.2388 53.8979 87.2045 53.7499C87.1702 53.6018 87.1332 53.4545 87.0923 53.3085C87.2111 53.8886 87.3306 54.4899 87.4236 55.0984L87.4923 55.779C87.4639 55.7301 87.4382 55.6799 87.4151 55.6277C87.392 55.5762 87.3715 55.5233 87.3543 55.4691C87.3372 55.4149 87.3227 55.3601 87.3114 55.3046C87.3002 55.2491 87.2923 55.1929 87.287 55.1361C87.3286 55.6641 87.3477 56.1927 87.3444 56.7219C87.3411 57.2505 87.3154 57.7798 87.2679 58.3064C87.2204 58.833 87.1497 59.3577 87.058 59.879C86.9656 60.3997 86.8521 60.9164 86.7161 61.4278C86.5775 61.9478 86.4185 62.4619 86.2383 62.9687C86.0588 63.4761 85.8581 63.9756 85.6383 64.4666C85.4186 64.9575 85.179 65.4392 84.9203 65.911C84.6615 66.3821 84.3837 66.8433 84.088 67.2926C84.1745 67.0402 84.3157 66.6966 84.3553 66.544C84.1916 66.9385 84.0108 67.3217 83.8102 67.7036C83.6108 67.9917 83.4043 68.2745 83.1904 68.552C82.9766 68.8295 82.7555 69.1018 82.5284 69.368C82.3007 69.6343 82.0664 69.8953 81.8262 70.1497C81.586 70.4048 81.3385 70.6532 81.0857 70.895C81.1517 70.8237 81.215 70.7503 81.2764 70.6757C81.3992 70.5254 81.5132 70.3681 81.6176 70.2045C81.6698 70.1233 81.7199 70.04 81.7675 69.9554C81.4155 70.3044 81.0507 70.64 80.6738 70.9618C80.2968 71.2831 79.908 71.5903 79.5083 71.8829C79.1083 72.1749 78.6971 72.4518 78.2767 72.7134C77.8558 72.9749 77.4252 73.2204 76.9858 73.4495C76.5436 73.6794 76.0921 73.8922 75.6328 74.0871C75.1741 74.282 74.7075 74.4591 74.2349 74.6184C73.7623 74.7776 73.2832 74.9183 72.8001 75.0399C72.3163 75.1622 71.8286 75.2652 71.3369 75.3498C70.4188 75.4569 69.4948 75.4952 68.5715 75.4648C67.6481 75.4344 66.7281 75.3359 65.8193 75.1688C64.9104 75.0022 64.0152 74.7683 63.141 74.469C62.2667 74.1696 61.4159 73.8056 60.5954 73.3801C61.033 73.6576 61.4844 73.9114 61.9477 74.1413C62.4117 74.3712 62.8876 74.5761 63.3727 74.7558C63.8584 74.9349 64.3528 75.0888 64.8544 75.2163C65.356 75.3432 65.8642 75.4436 66.3763 75.5176C65.6662 75.4465 64.961 75.3331 64.2643 75.178C63.5675 75.0236 62.8806 74.8277 62.2071 74.5913C61.5335 74.3556 60.8745 74.0798 60.2337 73.7653C59.5928 73.4513 58.9711 73.0994 58.3719 72.7114C57.7737 72.3263 57.1999 71.9044 56.6539 71.4481C56.1081 70.9915 55.5913 70.5019 55.1062 69.9812C54.6211 69.4605 54.169 68.9101 53.7519 68.3333C53.3348 67.7565 52.9539 67.1545 52.6121 66.5308C53.3783 67.2616 54.3736 68.2342 55.0653 68.4417C55.1623 68.2996 54.1736 66.9054 54.8673 67.6276C56.1767 68.8837 57.3244 69.8828 58.3765 70.5772C59.4292 71.2717 60.3849 71.6278 61.2343 71.4758C61.4065 71.4084 60.7716 70.7279 60.3301 70.0731C59.8885 69.4176 59.6034 68.8249 60.1123 69.0674C60.4264 69.2491 60.7459 69.4222 61.0706 69.5854C61.3946 69.748 61.724 69.9013 62.0573 70.0446C62.7247 70.3309 63.4085 70.5769 64.1053 70.7814C64.2287 70.829 64.3528 70.8745 64.4782 70.9175C64.6029 70.9604 64.729 71.0008 64.8557 71.0391C64.9824 71.0767 65.1098 71.1124 65.2378 71.1455C65.3659 71.1785 65.4946 71.2096 65.6239 71.2373C65.6873 71.2717 65.812 71.2373 65.9691 71.1977C67.8494 71.5155 69.6598 71.3932 70.659 71.3034C71.0313 71.2769 71.4009 71.2267 71.7685 71.1699C71.8134 71.1719 71.8589 71.1752 71.9045 71.1805C71.9493 71.1858 71.9942 71.193 72.0391 71.2016C72.0833 71.2102 72.1275 71.2208 72.1717 71.2333C72.2153 71.2459 72.2589 71.2598 72.3011 71.2756C72.5136 71.1461 72.7275 71.0285 72.9413 70.9301C73.1822 70.8686 73.4211 70.8005 73.6581 70.7265C73.895 70.6519 74.13 70.5713 74.3629 70.484C74.5953 70.3962 74.8256 70.303 75.0526 70.2026C75.2803 70.1028 75.5047 69.9964 75.7265 69.8847C75.8585 69.8391 75.9898 69.7922 76.1199 69.7427C76.2505 69.6931 76.3799 69.6416 76.5086 69.5874C76.6373 69.5339 76.7653 69.4777 76.8921 69.4196C77.0188 69.3614 77.1442 69.3006 77.2689 69.2379C77.2207 69.1896 77.0967 69.1691 77.1468 69.0548C77.4036 68.8837 77.655 68.7033 77.8999 68.515C78.1447 68.3267 78.3836 68.1311 78.616 67.9269C78.8483 67.7228 79.0733 67.5113 79.2918 67.2926C79.5103 67.0739 79.7215 66.8479 79.9247 66.6153C80.0158 66.5367 80.1082 66.4601 80.2019 66.3847C80.2957 66.3094 80.3907 66.2354 80.4871 66.1634C80.5834 66.0914 80.6811 66.0213 80.7794 65.9526C80.8784 65.8839 80.9781 65.8165 81.0791 65.7511C81.2375 65.0223 81.7846 64.0615 82.2869 62.9469C82.7891 61.8322 83.2274 60.5827 83.3666 59.5063H83.3442C83.3944 59.2361 83.4366 58.9645 83.4716 58.6916C83.5066 58.4187 83.5343 58.1452 83.5547 57.8716C83.5752 57.5974 83.5877 57.3225 83.5937 57.0477C83.599 56.7728 83.597 56.4979 83.5877 56.223C83.6359 56.038 83.6914 55.8583 83.76 55.6878C83.6412 55.4196 83.6036 55.1315 83.5363 54.9967C83.498 54.1047 83.4551 53.3375 83.3633 52.5618C83.2756 52.4409 83.0182 52.2453 82.9185 51.9705C82.8763 51.8343 82.8314 51.6995 82.7839 51.5654C82.7357 51.4313 82.6855 51.2978 82.6321 51.1657C82.5786 51.0335 82.5218 50.9027 82.4631 50.7732C82.4044 50.6437 82.3423 50.5148 82.2783 50.388C82.2123 50.2373 82.1437 50.0873 82.0737 49.9386C82.0031 49.7901 81.9305 49.6425 81.8559 49.4959C81.7813 49.3499 81.7048 49.2039 81.6256 49.0598C81.547 48.9158 81.4658 48.7724 81.3827 48.6304C81.0996 48.1456 80.7921 47.6757 80.4613 47.2223C80.1306 46.7687 79.7768 46.3325 79.4014 45.9153C79.0258 45.4977 78.6292 45.1 78.2134 44.7233C77.7976 44.3467 77.3626 43.9912 76.9099 43.6595C76.9044 43.612 76.9055 43.564 76.9132 43.5168C76.9171 43.493 76.9231 43.4699 76.9303 43.4474C76.9376 43.425 76.9462 43.4025 76.9567 43.3813C76.5944 43.2961 76.2116 42.9684 75.8974 42.8831C75.9648 42.8831 76.0162 42.8679 76.0301 42.8197C75.9403 42.7906 75.8512 42.7583 75.7628 42.7239C75.675 42.6895 75.5879 42.6519 75.5028 42.6116C75.417 42.5713 75.3325 42.529 75.2493 42.4834C75.1668 42.4378 75.085 42.3896 75.0051 42.3393C74.9325 42.2871 74.8593 42.2369 74.7847 42.188C74.7101 42.1391 74.6342 42.0916 74.5576 42.046C74.4811 42.0004 74.4032 41.9561 74.3253 41.9138C74.2468 41.8715 74.1676 41.8306 74.0871 41.7916C74.0356 41.781 73.9834 41.7711 73.9313 41.7625C73.8785 41.7539 73.8264 41.746 73.7736 41.7387C73.7214 41.7321 73.6686 41.7262 73.6158 41.7209C73.563 41.7156 73.5102 41.7116 73.4574 41.7083C73.3611 41.6667 73.264 41.6323 73.1677 41.5927C72.2529 40.8844 71.1296 40.7978 69.9357 40.6888C69.6341 40.6372 69.3305 40.5943 69.0262 40.5599C68.7219 40.5256 68.4164 40.4998 68.1108 40.4826C67.8052 40.4648 67.499 40.4562 67.1927 40.4562C66.8865 40.4562 66.5802 40.4648 66.274 40.4813C65.2992 40.554 64.8728 40.3796 64.1521 40.3868" fill="#A1A1A1"/>
<path d="M82.979 61.8943C83.0893 61.6501 83.1934 61.4031 83.2912 61.1536C83.3882 60.9038 83.4793 60.6514 83.5644 60.3977C83.7332 59.8888 83.8759 59.3716 83.9921 58.8482C83.837 59.9847 83.711 61.0578 82.979 61.8943ZM59.6606 68.3981C59.6045 68.2983 59.5471 68.1985 59.4871 68.1001C59.4277 68.0016 59.3663 67.9045 59.3029 67.8087C59.2396 67.7122 59.1749 67.6177 59.1082 67.5239C59.0416 67.4301 58.9736 67.3369 58.9036 67.2457C59.361 67.6831 59.8474 68.0895 60.3589 68.4622C60.8711 68.8342 61.407 69.1718 61.964 69.4718C62.5211 69.7724 63.0979 70.0347 63.6899 70.2581C64.2819 70.4807 64.8885 70.6638 65.5049 70.8052V70.8263C64.4885 70.6532 63.3104 70.1748 62.2835 69.6475C61.2572 69.1209 60.3563 68.5692 59.6606 68.3981ZM81.6194 64.4428C81.6201 64.4296 81.6214 64.4164 81.6227 64.4025L81.6267 64.3622C81.6287 64.349 81.63 64.3358 81.632 64.3225C81.6339 64.3093 81.6359 64.2955 81.6386 64.2822C81.6405 64.3262 81.6365 64.3702 81.6267 64.4131C81.6234 64.4276 81.6188 64.4415 81.6141 64.4554M53.3299 66.6927L53.1696 66.4284C53.3942 66.7524 53.6282 67.0699 53.8711 67.3805C53.9919 67.5358 54.1153 67.6891 54.2414 67.841C54.3668 67.993 54.4942 68.143 54.6242 68.291C54.5028 68.1694 54.3846 68.0452 54.2698 67.9177C54.1549 67.7902 54.0434 67.6593 53.9358 67.5259C53.8278 67.3925 53.7232 67.2564 53.6223 67.1175C53.5213 66.9784 53.4238 66.8367 53.3299 66.6927ZM50.783 58.72C50.7335 58.3236 50.6972 57.9258 50.6748 57.5274C50.6517 57.1283 50.6424 56.7292 50.6464 56.3294C50.651 55.9303 50.6682 55.5312 50.6999 55.1328C50.7309 54.7344 50.7751 54.3373 50.8332 53.9421C50.9276 53.4532 51.047 52.9695 51.1922 52.4931C51.3368 52.0167 51.507 51.5482 51.7017 51.0897C51.8958 50.6311 52.1149 50.1838 52.3564 49.7484C52.598 49.3129 52.8627 48.8907 53.1491 48.4837C52.705 49.2534 52.3187 50.0551 51.9935 50.8822C51.6675 51.7092 51.4034 52.5592 51.2034 53.4254C51.0035 54.291 50.8675 55.1711 50.7975 56.0572C50.727 56.9432 50.7222 57.8333 50.783 58.72ZM56.5243 64.6106C56.4709 64.4884 56.4201 64.3655 56.3712 64.2419C56.3224 64.1184 56.2755 63.9935 56.2306 63.8686C56.1858 63.7431 56.1435 63.6169 56.1033 63.49C56.063 63.3631 56.0247 63.2356 55.9891 63.1074C56.0425 63.2257 56.0973 63.344 56.1547 63.4609C56.2115 63.5779 56.2702 63.6942 56.3303 63.8091C56.3904 63.9248 56.4524 64.0391 56.5164 64.1521C56.5798 64.2657 56.6451 64.378 56.7118 64.4897C56.6049 64.4415 56.5738 64.5591 56.5243 64.604M57.9513 71.3325L57.5678 71.047C57.9268 71.2512 58.2911 71.4428 58.6621 71.6159C58.5155 71.571 58.1889 71.4256 57.9513 71.3325ZM54.9417 59.2817C54.9832 59.6596 55.0407 60.0356 55.1146 60.4102C55.0195 60.1995 54.9192 59.9933 54.8004 59.7865C54.8182 59.7462 54.8341 59.7059 54.8486 59.6642C54.8631 59.6233 54.8763 59.5817 54.8875 59.5394C54.8988 59.4971 54.908 59.4541 54.9159 59.4112C54.9238 59.3682 54.9304 59.3253 54.9351 59.2817M55.1403 53.4433C55.1727 53.321 55.207 53.2001 55.2439 53.0799C55.2809 52.9596 55.3205 52.84 55.3621 52.7211C55.4037 52.6028 55.4472 52.4845 55.4934 52.3676C55.5396 52.2506 55.5885 52.1343 55.6386 52.0194C55.5911 52.1627 55.5456 52.3068 55.502 52.4521C55.4584 52.5969 55.4169 52.7422 55.3779 52.8882C55.3383 53.0343 55.3014 53.181 55.2664 53.3283C55.2314 53.4757 55.1984 53.623 55.168 53.771C55.135 53.623 55.1053 53.5014 55.1403 53.4433Z" fill="#A1A1A1"/>
<path d="M59.7147 29.5525C60.1008 29.721 60.4803 29.906 60.8512 30.1069C61.2221 30.3071 61.5845 30.5238 61.9369 30.7551C62.2894 30.987 62.6319 31.2335 62.9639 31.4938C63.2958 31.7548 63.6159 32.029 63.9248 32.3171C64.2205 32.5946 64.5056 32.8827 64.7802 33.1807C65.0547 33.4793 65.3181 33.7879 65.5695 34.1057C65.821 34.4236 66.0606 34.7513 66.2883 35.087C66.5153 35.4226 66.7305 35.7669 66.9318 36.1184C66.776 35.8501 66.613 35.5865 66.4421 35.3275C66.2711 35.0685 66.0923 34.8147 65.9068 34.5663C65.7213 34.3178 65.5286 34.0747 65.3286 33.8375C65.1293 33.6003 64.9227 33.3683 64.7096 33.143C64.8614 33.3036 65.0085 33.4681 65.1518 33.6359C65.295 33.8044 65.4336 33.9762 65.5676 34.1513C65.7022 34.3264 65.8316 34.5055 65.957 34.6872C66.0817 34.8689 66.2025 35.0546 66.318 35.2422C66.4335 35.4325 66.545 35.6255 66.6506 35.8211C66.7569 36.0173 66.8585 36.2155 66.9542 36.4164C67.0506 36.6166 67.1417 36.8201 67.2281 37.0256C67.3139 37.2311 67.3951 37.4386 67.4703 37.648C67.4175 37.5687 67.3661 37.4881 67.3152 37.4075C67.2644 37.3269 67.2149 37.245 67.1667 37.163C67.1186 37.0804 67.0717 36.9978 67.0262 36.9139C66.98 36.8307 66.9357 36.7461 66.8922 36.6609C66.6902 36.3153 66.4797 35.9922 66.3193 35.9195C66.0329 35.4438 65.724 34.9812 65.394 34.5346C65.0632 34.088 64.7117 33.6571 64.3406 33.2435C63.5969 32.4168 62.7764 31.6628 61.8901 30.9916C61.4456 30.6548 60.9841 30.3412 60.5074 30.052C60.0308 29.762 59.5398 29.4977 59.0356 29.2585C58.532 29.0193 58.0165 28.8059 57.4912 28.6195C56.9652 28.4332 56.4306 28.2739 55.8887 28.1425C56.0788 28.1306 56.2695 28.1319 56.4596 28.1464C56.649 28.1616 56.8378 28.19 57.0239 28.2317C57.2094 28.2726 57.3922 28.3275 57.5704 28.3949C57.7487 28.4618 57.922 28.5413 58.0891 28.6327C58.6772 28.9406 59.1537 29.3054 59.7147 29.5591M68.5059 42.4808C68.4557 42.0367 68.3917 41.6172 68.3145 41.1864C68.3402 41.2927 68.364 41.3991 68.3851 41.5062C68.4062 41.6139 68.4247 41.7209 68.4405 41.8293C68.4564 41.937 68.4702 42.0453 68.4808 42.1544C68.492 42.2627 68.4999 42.3717 68.5059 42.4808ZM38.9274 42.011C38.8898 42.4669 38.8707 42.9248 38.8568 43.3675C38.8522 43.2538 38.8495 43.1409 38.8502 43.0272C38.8522 42.6871 38.878 42.3475 38.9274 42.011ZM53.9377 29.1514L53.1715 29.2049C52.6811 29.1831 52.1901 29.1851 51.6997 29.2102C51.2093 29.236 50.7209 29.2849 50.2352 29.3576C49.7494 29.4296 49.2683 29.5254 48.7917 29.6443C48.3152 29.7633 47.8453 29.9047 47.3826 30.0692C47.6433 29.9694 47.906 29.8763 48.1713 29.7891C48.4367 29.7018 48.704 29.6212 48.9726 29.5466C49.2419 29.4726 49.5125 29.4045 49.785 29.3424C50.057 29.2809 50.3309 29.2261 50.6054 29.1772C50.88 29.1283 51.1572 29.0913 51.435 29.0655C51.7129 29.0398 51.9914 29.0259 52.2706 29.0239C52.5498 29.0219 52.8283 29.0318 53.1068 29.0536C53.3847 29.0748 53.6619 29.1085 53.9377 29.1534M55.9197 29.8564C56.8467 30.0418 57.7459 30.3458 58.5953 30.761C59.0197 30.9685 59.4302 31.2031 59.8243 31.4634C60.2183 31.7231 60.5958 32.0085 60.9535 32.3171C60.5885 32.0184 60.2071 31.7416 59.8104 31.4872C59.4135 31.2331 59.0023 31.0022 58.5788 30.7954C58.1558 30.5886 57.7209 30.4062 57.2767 30.2496C56.8325 30.093 56.3791 29.9622 55.9197 29.8584M45.1083 52.8592C45.1288 52.8262 45.1703 52.8242 45.2185 52.8347C45.2284 52.84 45.2377 52.8453 45.2482 52.8499C45.2581 52.8546 45.268 52.8585 45.2786 52.8618C45.2992 52.8696 45.3207 52.875 45.3426 52.8777C45.4535 52.9894 45.5663 53.0984 45.6812 53.2054C45.7954 53.3125 45.9122 53.4175 46.031 53.5206C46.1498 53.623 46.2699 53.7235 46.392 53.8219C46.5147 53.9204 46.6388 54.0162 46.7649 54.11C46.6889 54.0863 46.6139 54.0599 46.5398 54.0307C46.5029 54.0162 46.4666 54.0016 46.4296 53.9858C46.3933 53.9699 46.357 53.9541 46.3214 53.9369C46.2706 53.8952 46.2204 53.8516 46.1716 53.8074C46.1227 53.7631 46.0752 53.7175 46.0283 53.6713C45.9812 53.6248 45.9352 53.5772 45.8904 53.5285C45.8454 53.4801 45.8013 53.4308 45.7584 53.3805C45.7102 53.3303 45.6601 53.2814 45.6086 53.2345C45.5571 53.1876 45.5036 53.142 45.4489 53.099C45.3941 53.0554 45.3373 53.0145 45.2799 52.9748C45.2225 52.9352 45.1631 52.8975 45.103 52.8625M39 41.5048L38.9881 41.4546C39.0086 41.2987 39.0258 41.1434 39.0515 40.9914L39.0739 40.9379C39.0515 41.1275 39.0277 41.3165 39 41.5048ZM44.5387 52.2923C44.5513 52.2784 44.5625 52.2639 44.573 52.2487C44.5931 52.2178 44.6087 52.1842 44.6192 52.1489C44.6239 52.1317 44.6278 52.1132 44.6305 52.0954C44.8542 52.363 45.0892 52.6134 45.3373 52.8731C45.3281 52.8691 45.3182 52.8651 45.3083 52.8618C45.2984 52.8579 45.2885 52.8546 45.2786 52.8513C45.2687 52.8486 45.2588 52.8453 45.2489 52.8427L45.2185 52.8347C45.0067 52.7204 44.7908 52.4132 44.5387 52.2923ZM41.7713 45.0676C41.7595 45.0233 41.7463 44.9791 41.7304 44.9355C41.7152 44.8918 41.6981 44.8496 41.6796 44.8073C41.6605 44.7656 41.64 44.724 41.6176 44.6844C41.5951 44.6441 41.5707 44.6044 41.545 44.5668C41.6156 43.9945 41.7179 43.4349 41.8519 42.792C41.8248 42.6849 41.8519 42.4722 41.8037 42.2594C41.8235 42.2317 41.8433 42.2039 41.8624 42.1755C41.8816 42.1471 41.9 42.1187 41.9185 42.0896C41.937 42.0612 41.9555 42.0321 41.9726 42.0024C41.9905 41.9733 42.0076 41.9436 42.0248 41.9138C41.9509 42.2753 41.8934 42.64 41.8538 43.0067C41.8136 43.3734 41.7911 43.7415 41.7852 44.1108C41.7799 44.4795 41.7911 44.8482 41.8202 45.2163C41.8486 45.5837 41.8948 45.9497 41.9575 46.3138C41.933 46.2107 41.9106 46.1076 41.8901 46.0039C41.8703 45.9002 41.8525 45.7964 41.8367 45.692C41.8215 45.5876 41.8083 45.4832 41.7971 45.3782C41.7859 45.2731 41.7773 45.168 41.7713 45.0623" fill="white"/>
<path d="M66.1 43.0582C66.1291 43.3576 66.1449 43.6575 66.1476 43.9589C66.1502 44.2595 66.1403 44.5601 66.1179 44.8601C66.0948 45.1594 66.0591 45.4588 66.0109 45.7554C65.9621 46.0521 65.9014 46.3468 65.8275 46.6382C65.5516 47.8322 65.1477 48.966 64.8164 50.0576C65.5324 48.9363 66.1053 47.4311 66.4281 46.144C66.7508 44.8568 66.9046 43.7943 67.2181 43.573C67.5322 43.3516 67.6207 44.3454 67.4101 45.6603C67.3811 45.8354 67.3494 46.0098 67.3138 46.1829C67.2781 46.3567 67.2392 46.5298 67.197 46.7016C67.1547 46.8741 67.1085 47.0452 67.0597 47.2157C67.0108 47.3862 66.958 47.5553 66.9026 47.7232C66.6815 48.415 66.4228 49.0453 66.2122 49.564C66.3852 49.3169 66.3852 49.3169 66.5574 49.0612C66.5132 49.118 66.4716 49.1768 66.4333 49.2383C66.3944 49.2997 66.3594 49.3625 66.3284 49.4279C66.2967 49.4926 66.2683 49.5594 66.2439 49.6274C66.2195 49.6955 66.1984 49.7649 66.1812 49.8349C66.2373 49.7556 66.2914 49.675 66.3449 49.5944C66.3984 49.5131 66.4505 49.4312 66.502 49.3486C66.5528 49.266 66.603 49.1828 66.6518 49.0988C66.7 49.0149 66.7475 48.9303 66.7937 48.8451C66.8307 48.7704 66.8703 48.6971 66.9112 48.6251C66.9521 48.5531 66.995 48.4817 67.0399 48.4117C67.0848 48.3423 67.1316 48.2736 67.1805 48.2062C67.2293 48.1388 67.2801 48.0734 67.3323 48.0086C67.3323 48.1969 67.3323 48.3872 67.3217 48.5788C67.7929 47.8996 68.2107 46.7955 68.4727 45.6411C68.7348 44.4868 68.8555 43.2915 69.0093 42.4292C68.9664 42.975 68.9037 43.5195 68.8206 44.0606C68.7374 44.6018 68.6338 45.1403 68.511 45.6735C68.3876 46.2074 68.245 46.736 68.0827 47.2593C67.9203 47.7826 67.7382 48.2993 67.5375 48.8088C67.3204 49.3552 67.0768 49.8904 66.8069 50.4131C66.5363 50.9351 66.2406 51.4438 65.9205 51.9368C65.279 52.9229 64.5414 53.8429 63.7188 54.6835C62.8616 55.5574 61.9072 56.33 60.8742 56.9862C59.841 57.6421 58.7362 58.1775 57.5815 58.5819C57.0073 58.7828 56.4218 58.9487 55.8272 59.0788C54.638 59.3403 53.4216 59.4573 52.2045 59.427C51.5966 59.4125 50.9901 59.361 50.3881 59.2731C49.1005 59.1145 47.834 58.8145 46.6116 58.3784C45.3894 57.9427 44.2188 57.3736 43.1209 56.6816C40.9182 55.293 39.0486 53.4348 37.6456 51.2397C37.4681 50.9178 37.3084 50.5865 37.1671 50.2472C37.0958 50.0774 37.0298 49.9063 36.9678 49.7332C36.9064 49.56 36.849 49.3856 36.7962 49.2092C36.7295 48.9931 36.6675 48.7757 36.61 48.5564C36.5533 48.337 36.5011 48.117 36.4536 47.8956C36.4068 47.6736 36.3645 47.4516 36.3276 47.2276C36.2906 47.0043 36.2589 46.7803 36.2319 46.5556C36.1009 45.8319 36.0123 45.1012 35.9665 44.3672C35.9203 43.6338 35.9177 42.8977 35.958 42.1629C35.9983 41.4288 36.0814 40.6976 36.2068 39.9732C36.3328 39.249 36.5005 38.5321 36.7104 37.8277C36.9625 37.0811 37.2708 36.3546 37.6324 35.6545C37.9936 34.9546 38.4065 34.2827 38.8679 33.6445C39.3299 33.0062 39.8387 32.4036 40.3905 31.8413C40.9423 31.2797 41.5349 30.7597 42.1646 30.2866C42.814 29.7983 43.4951 29.3543 44.204 28.9578C44.9127 28.5607 45.6474 28.2119 46.4031 27.9138C47.1581 27.6158 47.933 27.368 48.7216 27.1738C49.5097 26.9795 50.3103 26.8381 51.1181 26.7516C51.784 26.6703 52.5846 26.8011 52.7932 26.9828C52.9001 27.0707 52.8625 27.1659 52.5998 27.2544C52.4751 27.2874 52.3497 27.3185 52.2236 27.3482C52.0975 27.3773 51.9708 27.4044 51.8441 27.4295C51.7174 27.4546 51.59 27.4784 51.462 27.4995C51.3346 27.5207 51.2065 27.5392 51.0785 27.5564C49.7963 27.7996 48.5415 28.1706 47.333 28.6638C46.7298 28.9102 46.1384 29.1864 45.5622 29.4924C44.9861 29.7976 44.4257 30.132 43.8832 30.4941C43.9538 30.3209 44.266 30.095 44.625 29.8703C44.7102 29.8214 44.7953 29.7712 44.8791 29.7197C44.963 29.6688 45.0461 29.6159 45.1293 29.5624C45.2118 29.5089 45.2936 29.454 45.3748 29.3985C45.4553 29.3424 45.5358 29.2855 45.615 29.2274C45.4025 29.3159 45.1926 29.4098 44.9847 29.5089C44.7768 29.608 44.5716 29.7124 44.3696 29.8221C44.167 29.9318 43.967 30.0461 43.7703 30.1657C43.5737 30.2853 43.3796 30.4095 43.1896 30.539C43.0008 30.6678 42.8153 30.8013 42.6338 30.9394C42.4517 31.0775 42.2735 31.2202 42.0992 31.3669C41.9243 31.5143 41.7534 31.6656 41.5864 31.8215C41.4194 31.9774 41.2571 32.1373 41.098 32.3012C41.3218 32.07 41.5514 31.8446 41.7884 31.6259C42.0247 31.4079 42.2675 31.1964 42.5164 30.9916C42.7652 30.7874 43.0199 30.5905 43.28 30.4009C43.54 30.2113 43.8053 30.0289 44.0759 29.8545C43.3696 30.3046 42.6977 30.8066 42.0656 31.3563C41.4326 31.9052 40.8416 32.5006 40.2974 33.1377C40.0136 33.4707 39.7444 33.8157 39.4903 34.1718C39.2355 34.5279 38.9966 34.894 38.7735 35.2706C38.5504 35.6466 38.3432 36.0325 38.1524 36.4263C37.9617 36.8201 37.7881 37.2218 37.6317 37.6302C37.3935 38.2229 37.0463 38.7363 36.7599 39.3587C36.6747 39.5358 36.6015 39.7195 36.5407 39.9071C36.48 40.0948 36.4325 40.2864 36.3982 40.48C36.3639 40.6743 36.3434 40.8705 36.3361 41.0681C36.3289 41.265 36.3348 41.4619 36.3546 41.6581C36.5727 40.5233 36.9064 39.4138 37.3506 38.3471C37.573 37.8139 37.8218 37.2925 38.0977 36.7851C38.3729 36.2776 38.6738 35.7847 38.9999 35.3083C39.6508 34.3573 40.3911 33.4709 41.2109 32.6613C41.6201 32.2569 42.0491 31.8724 42.4959 31.5096C42.9421 31.1462 43.4054 30.8046 43.8845 30.4855C43.8832 30.4875 43.8819 30.4894 43.8812 30.4914C43.8799 30.4934 43.8786 30.4954 43.8779 30.4974C43.8766 30.4993 43.8759 30.5013 43.8753 30.5033C43.874 30.5053 43.8731 30.5076 43.8726 30.5099C44.2779 30.2337 44.6963 29.9774 45.1253 29.7408C45.5543 29.5043 45.9945 29.2882 46.444 29.0926C46.8935 28.8977 47.3522 28.7232 47.8175 28.5706C48.2834 28.418 48.756 28.2872 49.2338 28.1788C48.6398 28.3512 48.0537 28.5554 47.5323 28.6968C48.2095 28.5006 48.8972 28.3446 49.5922 28.2297C50.2878 28.1147 50.9894 28.0414 51.6936 28.0096C52.3972 27.9786 53.1027 27.9885 53.8056 28.0407C54.5085 28.0929 55.2074 28.1867 55.8991 28.3222C55.4035 28.2693 54.9058 28.2363 54.4082 28.2231C53.9099 28.2098 53.4109 28.2165 52.9133 28.2435C52.4157 28.27 51.9193 28.3169 51.4257 28.383C50.9313 28.4497 50.4403 28.5363 49.9532 28.642C49.4582 28.7497 48.9678 28.8798 48.4841 29.0318C48.0009 29.1845 47.5244 29.3582 47.0565 29.5538C46.5892 29.7501 46.1305 29.9668 45.6824 30.204C45.2349 30.4412 44.7973 30.6989 44.3729 30.9764C43.9485 31.2539 43.5374 31.5526 43.1414 31.8704C42.7458 32.1883 42.3659 32.5253 42.0029 32.88C41.6392 33.2349 41.294 33.6069 40.9667 33.9954C40.64 34.3839 40.3318 34.7876 40.044 35.2059C39.7628 35.6155 39.5028 36.0384 39.2659 36.4745C39.0283 36.9106 38.8131 37.3586 38.6224 37.8165C38.2392 38.7332 37.9517 39.6871 37.7644 40.663C38.1577 39.6263 38.5201 38.4376 39.0342 37.3209C39.5483 36.2049 40.1958 35.1874 40.9324 34.5821C40.3845 35.2774 39.8955 36.0171 39.4705 36.7937C38.1908 39.1354 37.5227 41.7627 37.5281 44.432L37.4397 43.6371C37.4073 43.9245 37.3869 44.2139 37.3776 44.5033C37.369 44.7934 37.373 45.0835 37.3882 45.3722C37.4034 45.6616 37.4311 45.9504 37.4707 46.2378C37.5103 46.5246 37.5611 46.81 37.6245 47.0928C37.6878 47.3756 37.7571 47.6571 37.8337 47.9372C37.9102 48.2167 37.9934 48.4949 38.0831 48.7704C38.1729 49.046 38.2693 49.3195 38.3716 49.5911C38.4745 49.862 38.5841 50.1309 38.6996 50.3966C38.7775 50.5849 38.8547 50.7719 38.9411 50.9562L38.6996 50.3966C38.5075 49.9248 38.3379 49.4431 38.192 48.9548C38.0455 48.4665 37.9234 47.9709 37.8251 47.4707C37.7268 46.9706 37.6528 46.4657 37.6033 45.9583C37.5538 45.4508 37.5288 44.9414 37.5281 44.432C37.6317 45.3438 37.7314 46.3032 37.9439 47.4437C37.9439 46.804 37.8455 45.9127 37.8488 45.0246C37.8317 44.7339 37.8231 44.4432 37.8231 44.1518C37.8231 43.8611 37.8323 43.5703 37.8502 43.2796C37.868 42.9889 37.8944 42.6995 37.9294 42.4107C37.9643 42.122 38.0086 41.8339 38.0614 41.5478C37.9947 41.9707 37.9511 42.3975 37.93 42.825C37.9089 43.2525 37.9109 43.6813 37.936 44.1088C37.961 44.5364 38.0086 44.9625 38.0792 45.3848C38.1498 45.8076 38.2429 46.2259 38.3577 46.6382C38.0713 44.2813 38.2442 41.8002 39.0481 39.5741C38.9557 39.8827 38.8732 40.1939 38.8012 40.5071C38.7299 40.8209 38.6686 41.1368 38.6177 41.4546C38.5669 41.7724 38.5273 42.0922 38.4983 42.4127C38.4686 42.7332 38.4501 43.0543 38.4422 43.3761C38.4013 43.9218 38.3914 44.4696 38.4131 45.0167C38.4349 45.5638 38.4877 46.1089 38.5722 46.6494C38.6567 47.1906 38.7722 47.7265 38.9174 48.2537C39.0632 48.781 39.2395 49.3004 39.4447 49.8072L39.3451 49.5759C39.4084 49.7312 39.481 49.8851 39.5516 50.0404C39.6388 50.2413 39.7298 50.4408 39.8255 50.6371C39.9212 50.834 40.0216 51.0282 40.1258 51.2205C40.3353 51.6048 40.5624 51.9791 40.8063 52.3425C40.9205 52.4997 41.0399 52.653 41.164 52.8017C41.2888 52.951 41.4188 53.0957 41.5528 53.2358C41.6874 53.3759 41.8273 53.5107 41.9712 53.6415C42.1151 53.7717 42.2636 53.8966 42.416 54.0168L42.6873 54.2877C42.4748 54.1582 42.3421 54.1153 42.6543 54.478C42.8305 54.6756 43.014 54.8659 43.2054 55.0482C43.3968 55.2313 43.5954 55.4057 43.8014 55.5722C44.0073 55.7381 44.2198 55.896 44.4383 56.0447C44.6567 56.1933 44.8811 56.3334 45.1115 56.4636C46.0533 57.0265 47.0717 57.5003 48.1362 58.0044C48.3151 58.0798 48.4973 58.1478 48.6814 58.2086C48.8655 58.2694 49.0523 58.3229 49.2411 58.3698C49.4292 58.4161 49.6192 58.4557 49.8106 58.4875C50.002 58.5192 50.1948 58.5443 50.3881 58.5615C50.4251 58.5786 50.464 58.5932 50.5043 58.6037C50.5439 58.6143 50.5848 58.6216 50.6257 58.6256C50.6667 58.6295 50.7082 58.6295 50.7492 58.6256C50.7907 58.6222 50.831 58.615 50.8713 58.6044C51.0627 58.6196 51.2574 58.6302 51.4507 58.6388C51.5682 58.6507 51.685 58.6593 51.8025 58.6659C51.92 58.6718 52.0381 58.6758 52.1556 58.6764C52.2731 58.6778 52.3906 58.6758 52.5081 58.6718C52.6262 58.6672 52.7437 58.6606 52.8605 58.6513C52.4018 58.6513 51.9253 58.6513 51.4507 58.6388L50.9227 58.5925C50.9643 58.5773 51.0059 58.5648 51.0488 58.5542C51.0917 58.5443 51.1346 58.5363 51.1782 58.5311C51.2217 58.5258 51.2653 58.5225 51.3095 58.5225C51.3531 58.5218 51.3966 58.5238 51.4408 58.5284C51.0336 58.4822 50.6284 58.4187 50.2264 58.3375C49.8252 58.2569 49.4265 58.1591 49.0332 58.0448C48.6398 57.9304 48.2511 57.7996 47.8689 57.6516C47.4868 57.5043 47.1106 57.341 46.7423 57.1613C46.3668 56.979 45.9998 56.7814 45.6408 56.5693C45.2817 56.3572 44.9313 56.1306 44.5907 55.89C44.2495 55.6495 43.9188 55.3951 43.5987 55.1282C43.2786 54.8606 42.9691 54.5804 42.6715 54.2877C42.8444 54.3934 43.0912 54.552 43.2014 54.6042C42.9269 54.4212 42.6629 54.2223 42.4009 54.0168C42.2114 53.8219 42.0273 53.6223 41.8478 53.4182C41.6689 53.214 41.4947 53.0052 41.3264 52.7924C40.9887 52.3667 40.6729 51.9241 40.3799 51.4663C40.4248 51.5264 40.471 51.5859 40.5192 51.6441C40.5674 51.7015 40.6169 51.7584 40.6677 51.8139C40.7192 51.8687 40.772 51.9222 40.8261 51.9744C40.8802 52.0266 40.9357 52.0775 40.9924 52.1264C40.7792 51.8066 40.5786 51.4782 40.3898 51.1432C40.2011 50.8082 40.0249 50.4659 39.8618 50.1177C39.6988 49.7695 39.549 49.4147 39.413 49.0552C39.2764 48.6956 39.1535 48.3308 39.0448 47.9617C38.9359 47.5903 38.8415 47.215 38.7616 46.8364C38.6818 46.4578 38.6171 46.0759 38.5663 45.692C38.5161 45.3088 38.4805 44.9229 38.46 44.5364C38.4389 44.1498 38.4336 43.7626 38.4422 43.3761C38.497 42.6598 38.6045 41.9488 38.7649 41.2491C38.9246 40.5494 39.1358 39.8622 39.3972 39.1935C39.6592 38.5248 39.9694 37.8766 40.3271 37.2542C40.6842 36.6318 41.0875 36.0364 41.533 35.4741C41.2571 35.7662 40.997 36.0721 40.7535 36.3919C40.51 36.7117 40.2829 37.0434 40.0744 37.387C39.8665 37.7306 39.6757 38.0848 39.5048 38.4482C39.3338 38.8123 39.182 39.1843 39.05 39.5642C39.2091 39.033 39.3998 38.5116 39.6203 38.0028C39.8414 37.4941 40.0922 36.9992 40.3714 36.5201C40.6505 36.0411 40.9581 35.5792 41.2921 35.1365C41.626 34.6945 41.9857 34.2722 42.3698 33.8725C42.752 33.4734 43.1592 33.0987 43.5875 32.7499C44.0165 32.4016 44.4666 32.0805 44.9352 31.7878C45.4038 31.4958 45.8903 31.2328 46.3919 31.0009C46.8928 30.7689 47.4083 30.5687 47.9343 30.4009C47.265 30.878 46.3813 31.4931 46.1173 31.9907C46.2104 32.0838 47.4168 31.538 46.7661 31.9596C45.615 32.7717 44.6871 33.4972 44.0053 34.2055C43.3242 34.9138 42.9077 35.5878 42.8992 36.2518C42.9236 36.3966 43.536 36.0094 44.1069 35.7695C44.6785 35.529 45.1629 35.3995 44.9042 35.7523C44.7194 35.9651 44.5406 36.1831 44.3683 36.4065C44.196 36.6298 44.0304 36.8584 43.872 37.0917C43.7136 37.3249 43.5618 37.5628 43.4172 37.8053C43.2734 38.0471 43.1361 38.2942 43.0061 38.5447C42.952 38.6319 42.8998 38.7198 42.8483 38.8083C42.7975 38.8975 42.748 38.9874 42.7005 39.0785C42.6052 39.26 42.5167 39.4449 42.4352 39.6329C42.4279 39.6541 42.4213 39.6759 42.4167 39.6983C42.4121 39.7201 42.4088 39.7426 42.4075 39.7651C42.4055 39.7875 42.4055 39.81 42.4075 39.8325C42.4088 39.8549 42.4114 39.8774 42.416 39.8992C42.3145 40.1863 42.2221 40.4765 42.1388 40.7694C42.055 41.0621 41.9811 41.3581 41.9164 41.6555C41.7859 42.2507 41.6936 42.8536 41.6399 43.4606C41.6056 43.7494 41.5877 44.0362 41.5792 44.3242C41.5706 44.3586 41.5613 44.393 41.5501 44.4267C41.5389 44.4597 41.527 44.4927 41.5132 44.5258C41.5 44.5582 41.4854 44.5905 41.4696 44.6222C41.4538 44.654 41.4373 44.685 41.4188 44.7154C41.4861 44.8965 41.5429 45.0762 41.5917 45.2539C41.6023 45.4462 41.6174 45.6372 41.6386 45.8281C41.6597 46.0191 41.6861 46.2094 41.7171 46.399C41.7488 46.5886 41.7851 46.777 41.8273 46.9646C41.8689 47.1516 41.9158 47.3379 41.9679 47.5229C41.9824 47.6306 41.9983 47.7377 42.0167 47.8447C42.0352 47.9518 42.055 48.0582 42.0768 48.1645C42.0986 48.2703 42.1223 48.3766 42.1481 48.4817C42.1738 48.5874 42.2009 48.6918 42.2299 48.7962C42.2728 48.7671 42.3078 48.6753 42.385 48.7288C42.4781 48.9508 42.5777 49.1695 42.6847 49.3843C42.7922 49.5997 42.9058 49.8111 43.0272 50.0193C43.148 50.2267 43.2754 50.4303 43.4093 50.6298C43.544 50.8287 43.6845 51.0236 43.8311 51.2139C43.8773 51.2952 43.9221 51.3771 43.9657 51.4597C44.0093 51.5423 44.0508 51.6256 44.0911 51.7101C44.132 51.794 44.171 51.8793 44.2079 51.9645C44.2455 52.0498 44.2818 52.1363 44.3162 52.2229C44.8475 52.4508 45.4982 53.0125 46.2711 53.5536C46.4585 53.693 46.6512 53.8252 46.8486 53.9514C47.0453 54.0769 47.2472 54.1952 47.4525 54.3069C47.6577 54.4185 47.867 54.5223 48.0801 54.6188C48.2927 54.7152 48.5091 54.8044 48.7283 54.8857V54.8718C48.9256 54.9491 49.1256 55.0218 49.3275 55.0885C49.5288 55.1553 49.7321 55.2167 49.9374 55.2722C50.3469 55.3848 50.7622 55.475 51.1815 55.5425C51.2145 55.5577 51.2475 55.5735 51.2798 55.5894C51.3121 55.6059 51.3445 55.6224 51.3762 55.6396C51.4085 55.6568 51.4402 55.6746 51.4712 55.6925C51.5029 55.7103 51.5339 55.7288 51.5649 55.748C51.7873 55.6964 52.0098 55.7103 52.1206 55.6773C52.8103 55.781 53.3918 55.8623 53.9957 55.9052C54.0353 55.8768 54.0756 55.8504 54.1165 55.8253C54.1994 55.7758 54.2864 55.7336 54.3765 55.6991C54.4214 55.6819 54.4676 55.666 54.5138 55.6528C54.7333 55.6288 54.9518 55.5955 55.1685 55.5531C55.2767 55.5319 55.385 55.5088 55.4926 55.483C55.5995 55.4572 55.7064 55.4295 55.8127 55.3991C55.9374 55.3707 56.0608 55.341 56.1842 55.3099C56.3077 55.2782 56.4311 55.2445 56.5532 55.2095C56.6759 55.1744 56.7974 55.1374 56.9188 55.0985C57.0403 55.0601 57.161 55.0198 57.2812 54.9775C57.6917 54.8335 58.0949 54.6683 58.4883 54.4833C59.2762 54.1122 60.0244 53.6616 60.7211 53.1387C61.0689 52.877 61.4035 52.5982 61.7229 52.3028C61.7414 52.3041 61.7599 52.3061 61.7777 52.3101C61.7962 52.3141 61.814 52.3193 61.8318 52.3259C61.849 52.3326 61.8662 52.3398 61.8827 52.3484C61.8992 52.3577 61.915 52.3676 61.9295 52.3788C62.047 52.1138 62.3546 51.872 62.4648 51.6441C62.4542 51.6963 62.4648 51.7372 62.4938 51.7551C62.5295 51.6903 62.5664 51.6269 62.606 51.5648C62.6456 51.5033 62.6865 51.4425 62.7301 51.3831C62.773 51.3236 62.8185 51.2654 62.8654 51.2093C62.9123 51.1525 62.9611 51.0976 63.0119 51.0448C63.0614 50.9965 63.1103 50.9483 63.1584 50.8981C63.2066 50.8485 63.2535 50.7976 63.299 50.7461C63.3446 50.6939 63.3894 50.6417 63.433 50.5875C63.4766 50.534 63.5188 50.4798 63.5604 50.4243C63.5769 50.3866 63.5921 50.3483 63.6066 50.31C63.6218 50.2717 63.6356 50.2333 63.6488 50.1944C63.6614 50.1554 63.6739 50.1164 63.6851 50.0767C63.697 50.0371 63.7076 49.9975 63.7175 49.9578C63.7637 49.8904 63.8072 49.821 63.8501 49.7536C64.5233 49.1609 64.7563 48.3178 65.015 47.4225C65.0988 47.1998 65.1767 46.9745 65.2486 46.7479C65.3199 46.5206 65.3853 46.2913 65.4433 46.06C65.5021 45.8294 65.5542 45.5969 65.5991 45.3629C65.6446 45.129 65.6836 44.8938 65.7153 44.6579C65.8037 43.9047 66.0004 43.606 66.102 43.0543" fill="white"/>
<path d="M46.956 54.2428C47.1256 54.3637 47.2978 54.48 47.4734 54.5917C47.649 54.7033 47.8272 54.8104 48.008 54.9134C48.1888 55.0159 48.3723 55.1137 48.5584 55.2068C48.7446 55.3 48.9327 55.3879 49.1227 55.4718C48.2812 55.185 47.484 54.9306 46.956 54.2481M45.465 35.4979C45.5495 35.4708 45.634 35.4418 45.7172 35.4107C45.801 35.3803 45.8841 35.3479 45.966 35.3136C46.0485 35.2799 46.1303 35.2449 46.2115 35.2079C46.292 35.1708 46.3725 35.1319 46.4517 35.0922C46.0518 35.3763 45.671 35.6869 45.3119 36.0219C44.9529 36.3569 44.6169 36.7157 44.3061 37.0963C43.9952 37.4762 43.7101 37.8773 43.4534 38.2955C43.196 38.7145 42.9669 39.1492 42.7683 39.5985H42.7524C42.8402 39.3937 42.9346 39.1915 43.0362 38.9933C43.1379 38.7944 43.2461 38.5995 43.3616 38.4092C43.4771 38.2182 43.5992 38.0319 43.7279 37.8495C43.8566 37.6678 43.9919 37.4901 44.1332 37.3176C44.6796 36.602 45.2387 36.006 45.4716 35.5019M45.2116 52.8347L45.2413 52.8426C45.2512 52.8453 45.2618 52.8479 45.2717 52.8512C45.2816 52.8545 45.2915 52.8572 45.3014 52.8605C45.3106 52.8638 45.3205 52.8678 45.3304 52.8711C45.3198 52.8691 45.3086 52.8671 45.2981 52.8645C45.2875 52.8618 45.2769 52.8585 45.2664 52.8552C45.2456 52.8479 45.2255 52.8388 45.2063 52.8281M47.6978 30.9242L47.9235 30.8416C47.6441 30.9646 47.3684 31.0957 47.0965 31.2348C46.9606 31.3041 46.8259 31.3755 46.692 31.4488C46.558 31.5222 46.4253 31.5968 46.2933 31.6742C46.4035 31.5995 46.5151 31.5281 46.6293 31.4594C46.7428 31.3907 46.8589 31.3253 46.9758 31.2625C47.0932 31.1997 47.212 31.1403 47.3322 31.0841C47.4529 31.0273 47.5744 30.9744 47.6978 30.9242ZM54.1374 30.1624C54.4456 30.1835 54.7538 30.2146 55.0601 30.2562C55.3663 30.2978 55.6712 30.35 55.9742 30.4128C56.2771 30.4749 56.5781 30.5476 56.8757 30.6302C57.1741 30.7134 57.4691 30.8059 57.7608 30.909C58.1188 31.0529 58.4689 31.2159 58.8095 31.3973C59.1501 31.5783 59.4807 31.7772 59.8008 31.994C60.1203 32.21 60.4285 32.4426 60.7235 32.6917C61.0185 32.9408 61.3004 33.2045 61.567 33.4833C61.0476 33.0307 60.4952 32.6177 59.9144 32.247C59.3342 31.8763 58.7264 31.5486 58.098 31.2678C57.4691 30.987 56.8203 30.7531 56.157 30.5681C55.493 30.383 54.8172 30.2476 54.1341 30.1624M48.8092 33.6663C48.9096 33.6445 49.0105 33.624 49.1122 33.6049C49.2132 33.5864 49.3148 33.5692 49.4164 33.554C49.6205 33.5239 49.8254 33.5004 50.0309 33.4833C49.9319 33.5064 49.8342 33.5309 49.7365 33.5566C49.6382 33.5831 49.5412 33.6102 49.4442 33.6392C49.3471 33.6676 49.2508 33.698 49.1544 33.7298C49.0587 33.7615 48.963 33.7945 48.868 33.8289C48.9214 33.7549 48.835 33.7132 48.8092 33.6683M43.4857 33.7601L43.7583 33.5091C43.5517 33.7549 43.3511 34.002 43.163 34.259C43.2204 34.154 43.3788 33.9273 43.4857 33.7601ZM53.0953 33.25C52.8016 33.2256 52.5065 33.2157 52.2135 33.221C52.3858 33.1793 52.5587 33.1324 52.7309 33.0723C52.7587 33.0915 52.787 33.1093 52.8161 33.1258C52.8451 33.143 52.8748 33.1589 52.9052 33.1727C52.9355 33.1873 52.9666 33.2005 52.9976 33.2124C53.0293 33.2249 53.0609 33.2355 53.0933 33.2448M57.5054 34.2663C57.5932 34.3086 57.6803 34.3528 57.7667 34.3991C57.8525 34.4453 57.9377 34.4929 58.0221 34.5425C58.106 34.592 58.1891 34.6429 58.2716 34.6958C58.3535 34.7486 58.4346 34.8028 58.5152 34.859C58.4129 34.8008 58.3099 34.7447 58.2063 34.6898C58.1027 34.635 57.9977 34.5821 57.8928 34.5306C57.7872 34.479 57.6809 34.4288 57.5747 34.3806C57.4677 34.3324 57.3602 34.2854 57.2519 34.2405C57.3694 34.2405 57.4678 34.2405 57.5054 34.2663Z" fill="white"/>
</svg>
