<svg width="43" height="43" viewBox="0 0 43 43" fill="none" xmlns="http://www.w3.org/2000/svg">
<path d="M38.4336 29.9492L36.8398 36.6562C36.6406 37.6523 35.8438 38.3164 34.8477 38.3164C18.1133 38.25 4.5 24.6367 4.5 7.90234C4.5 6.90625 5.09766 6.10938 6.09375 5.91016L12.8008 4.31641C13.7305 4.11719 14.7266 4.64844 15.125 5.51172L18.2461 12.75C18.5781 13.6133 18.3789 14.6094 17.6484 15.1406L14.0625 18.0625C16.3203 22.6445 20.0391 26.3633 24.6875 28.6211L27.6094 25.0352C28.1406 24.3711 29.1367 24.1055 30 24.4375L37.2383 27.5586C38.1016 28.0234 38.6328 29.0195 38.4336 29.9492Z" fill="#F0F0F0"/>
</svg>
