<svg width="164" height="193" viewBox="0 0 164 193" fill="none" xmlns="http://www.w3.org/2000/svg">
<rect width="163" height="193" transform="translate(0.5)" fill="white" fill-opacity="0.1"/>
<path d="M52.945 152.24V140.96L55.705 138.2H63.913L66.625 140.912V143.48H63.361V142.112L62.233 140.984H57.433L56.209 142.208V150.992L57.433 152.216H62.233L63.361 151.088V149.72H66.625V152.288L63.913 155H55.705L52.945 152.24ZM68.5516 152.408V150.008H71.7676V151.424L72.5596 152.216H77.5276L78.3436 151.4V148.616L77.5516 147.824H71.1916L68.5996 145.232V140.792L71.1916 138.2H78.7756L81.3676 140.792V143.216H78.1516V141.776L77.3596 140.984H72.6076L71.8156 141.776V144.248L72.6076 145.04H78.9676L81.5596 147.632V152.36L78.9196 155H71.1436L68.5516 152.408ZM83.8328 152.408V150.008H87.0488V151.424L87.8408 152.216H92.8088L93.6248 151.4V148.616L92.8328 147.824H86.4728L83.8808 145.232V140.792L86.4728 138.2H94.0568L96.6488 140.792V143.216H93.4328V141.776L92.6408 140.984H87.8888L87.0968 141.776V144.248L87.8888 145.04H94.2488L96.8408 147.632V152.36L94.2008 155H86.4248L83.8328 152.408ZM98.7541 152.408V149.768H102.018V151.424L102.81 152.216H107.13L107.922 151.424V148.712L107.154 147.944H102.354V145.16H107.154L107.922 144.392V141.776L107.13 140.984H102.954L102.162 141.776V143.432H98.8981V140.792L101.49 138.2H108.594L111.186 140.792V145.352L109.962 146.552L111.186 147.776V152.408L108.594 155H101.346L98.7541 152.408Z" fill="#F0F0F0"/>
<path d="M115.749 31.074L109.468 99.1085L82.2544 106.436L55.0403 99.1085L48.7605 31.074H115.749ZM103.092 44.9077H82.2299H60.9979L62.0133 53.1235H82.2299H83.3655L82.2299 53.5962L62.7522 61.7085L63.3982 69.7392L82.2299 69.8003L92.3231 69.8323L91.677 80.5402L82.2297 83.2V83.1916L82.1523 83.2131L73.0286 80.9099L72.475 74.263H72.4447H63.982H63.9522L65.06 87.0948L82.23 92.1724V92.1632L82.261 92.1724L99.339 87.1872L101.554 61.7085H82.23H82.1824L82.23 61.6878L102.262 53.1235L103.092 44.9077Z" fill="#F0F0F0"/>
</svg>
