<svg width="164" height="193" viewBox="0 0 164 193" fill="none" xmlns="http://www.w3.org/2000/svg">
<rect width="163" height="193" transform="translate(0.5)" fill="white" fill-opacity="0.1"/>
<path d="M48.9194 138.2H60.8234V140.96H52.1834V145.616H59.6714V148.376H52.1834V155H48.9194V138.2ZM62.5075 140.552V139.016L63.6115 137.912H65.2915L66.3955 139.016V140.552L65.2915 141.656H63.6115L62.5075 140.552ZM62.8675 143.048H66.0355V155H62.8675V143.048ZM80.7346 143.048V157.736L78.1426 160.304H71.6386L69.4066 158.096V156.464H72.5746V157.184L73.0306 157.664H76.7506L77.5666 156.824V153.44L75.9106 155H71.3986L68.9266 152.504V145.544L71.3986 143.048H76.1026L77.8066 144.68V143.048H80.7346ZM77.5666 147.2L75.9346 145.736H73.0066L72.0946 146.672V151.376L73.0066 152.312H75.6226L77.5666 150.32V147.2ZM83.6041 143.048H86.5321V145.016L88.4761 143.048H91.5001L93.1321 144.704L94.7641 143.048H98.9401L101.508 145.64V155H98.3401V146.576L97.5241 145.736H95.5081L94.2361 147.008V155H91.1641V146.528L90.3961 145.736H88.9561L86.7721 147.944V155H83.6041V143.048ZM103.916 152.792V150.056L106.124 147.848H112.196V146.336L111.452 145.592H107.852L107.132 146.336V147.008H104.012V145.64L106.58 143.048H112.748L115.316 145.64V155H112.46V153.296L110.684 155H106.124L103.916 152.792ZM110.468 152.552L112.196 150.896V150.104H107.684L107.036 150.752V151.952L107.636 152.552H110.468Z" fill="#F0F0F0"/>
<path fill-rule="evenodd" clip-rule="evenodd" d="M60.2312 49.8774C60.2312 42.927 65.8657 37.2925 72.8161 37.2925H91.6936C98.6442 37.2925 104.279 42.927 104.279 49.8774C104.279 53.6362 102.631 57.0101 100.018 59.3161C102.631 61.6221 104.279 64.996 104.279 68.7548C104.279 75.7055 98.6442 81.3398 91.6936 81.3398C89.4013 81.3398 87.2522 80.727 85.4011 79.6562V87.6323C85.4011 94.5829 79.7668 100.217 72.8161 100.217C65.8657 100.217 60.2312 94.5829 60.2312 87.6323C60.2312 83.8734 61.879 80.4995 64.4917 78.1936C61.879 75.8876 60.2312 72.5137 60.2312 68.7548C60.2312 64.996 61.8791 61.6221 64.4917 59.3161C61.8791 57.0101 60.2312 53.6362 60.2312 49.8774ZM72.8161 62.4624C69.3409 62.4624 66.5237 65.2795 66.5237 68.7548C66.5237 72.2302 69.3409 75.0473 72.8161 75.0473H79.1086V62.4624H72.8161ZM79.1086 56.1699H72.8161C69.3409 56.1699 66.5237 53.3526 66.5237 49.8774C66.5237 46.4022 69.3409 43.585 72.8161 43.585H79.1086V56.1699ZM91.6936 62.4624C88.2182 62.4624 85.4011 65.2795 85.4011 68.7548C85.4011 72.2302 88.2182 75.0473 91.6936 75.0473C95.1689 75.0473 97.986 72.2302 97.986 68.7548C97.986 65.2795 95.1689 62.4624 91.6936 62.4624ZM85.4011 56.1699V43.585H91.6936C95.1689 43.585 97.986 46.4022 97.986 49.8774C97.986 53.3527 95.1689 56.1699 91.6936 56.1699H85.4011ZM79.1086 81.3398H72.8161C69.3409 81.3398 66.5237 84.1569 66.5237 87.6323C66.5237 91.1076 69.3409 93.9247 72.8161 93.9247C76.2915 93.9247 79.1086 91.1076 79.1086 87.6323V81.3398Z" fill="#F0F0F0"/>
</svg>
