<svg width="163" height="193" viewBox="0 0 163 193" fill="none" xmlns="http://www.w3.org/2000/svg">
<rect width="163" height="193" fill="white" fill-opacity="0.1"/>
<path d="M44.06 138.2H47.324V145.232H54.428V138.2H57.692V155H54.428V148.016H47.324V155H44.06V138.2ZM64.6338 140.96H59.6178V138.2H72.9138V140.96H67.8978V155H64.6338V140.96ZM74.8334 138.2H77.8574L82.8494 149.048H82.8974L87.9134 138.2H90.9374V155H87.7934V144.776H87.7454L83.8814 152.648H81.8654L78.0254 144.776H77.9774V155H74.8334V138.2ZM94.0522 138.2H97.3162V152.24H105.716V155H94.0522V138.2ZM107.025 152.408V149.672H110.289V151.424L111.081 152.216H115.353L116.145 151.424V147.632L115.353 146.84H107.265V138.2H119.073V140.984H110.481V144.056H116.793L119.409 146.672V152.408L116.817 155H109.617L107.025 152.408Z" fill="#F0F0F0"/>
<path d="M60.0391 31H63.4339V34.354H66.5394V31H69.9344V41.1568H66.5396V37.7557H63.4341V41.1568H60.0393L60.0391 31ZM74.3985 34.3682H71.4103V31H80.7839V34.3682H77.7939V41.1568H74.3991V34.3682H74.3985ZM82.2715 31H85.8113L87.9887 34.5688L90.1641 31H93.7053V41.1568H90.3243V36.1225L87.9887 39.7338H87.9302L85.5931 36.1225V41.1568H82.2715V31ZM95.3947 31H98.7906V37.7996H103.565V41.1568H95.3945V31H95.3947Z" fill="#F0F0F0"/>
<path fill-rule="evenodd" clip-rule="evenodd" d="M103.574 100.261L108.435 45.802H55.0743L59.9306 100.269L81.7221 106.319L103.574 100.261ZM81.7319 77.1368H89.9579L89.1823 85.8006L81.7317 87.8115V87.8118L81.7257 87.8134L74.286 85.8045L73.8103 80.4768H67.1044L68.0402 90.9657L81.7242 94.7642L81.755 94.7559V94.7549L95.4266 90.966L95.527 89.8373L97.097 72.2505L97.2599 70.4566H81.755V70.4564H72.9153L72.3047 63.6157H81.7319V63.616H97.8678L98.0016 62.1146L98.3062 58.7279L98.4658 56.9358H81.755V56.9355H65.0042L65.164 58.7277L66.8059 77.1366H81.7319V77.1368Z" fill="#F0F0F0"/>
</svg>
