<svg width="163" height="193" viewBox="0 0 163 193" fill="none" xmlns="http://www.w3.org/2000/svg">
<rect width="163" height="193" fill="white" fill-opacity="0.1"/>
<path d="M55.3902 137.096V133.976H58.5582V135.992L59.7822 137.216H62.9742L64.1262 136.088V123.2H67.3902V137.192L64.5822 140H58.2702L55.3902 137.096ZM69.912 137.792V135.056L72.12 132.848H78.192V131.336L77.448 130.592H73.848L73.128 131.336V132.008H70.008V130.64L72.576 128.048H78.744L81.312 130.64V140H78.456V138.296L76.68 140H72.12L69.912 137.792ZM76.464 137.552L78.192 135.896V135.104H73.68L73.032 135.752V136.952L73.632 137.552H76.464ZM82.4023 128.048H85.6903L88.4743 136.376H88.5703L91.3543 128.048H94.6423L90.0583 140H86.9863L82.4023 128.048ZM95.3652 137.792V135.056L97.5732 132.848H103.645V131.336L102.901 130.592H99.3012L98.5812 131.336V132.008H95.4612V130.64L98.0292 128.048H104.197L106.765 130.64V140H103.909V138.296L102.133 140H97.5732L95.3652 137.792ZM101.917 137.552L103.645 135.896V135.104H99.1332L98.4852 135.752V136.952L99.0852 137.552H101.917ZM48.2352 168.408V166.008H51.4512V167.424L52.2432 168.216H57.2112L58.0272 167.4V164.616L57.2352 163.824H50.8752L48.2832 161.232V156.792L50.8752 154.2H58.4592L61.0512 156.792V159.216H57.8352V157.776L57.0432 156.984H52.2912L51.4992 157.776V160.248L52.2912 161.04H58.6512L61.2432 163.632V168.36L58.6032 171H50.8272L48.2352 168.408ZM63.3992 168.552V161.496L65.8232 159.048H72.3992L74.8712 161.544V163.752H71.7032V162.576L70.8632 161.736H67.4072L66.5672 162.576V167.472L67.4072 168.312H70.8632L71.7032 167.472V166.296H74.8712V168.504L72.3992 171H65.8232L63.3992 168.552ZM77.022 159.048H79.95V161.04L81.87 159.048H85.278V161.736H82.518L80.19 164.136V171H77.022V159.048ZM86.7223 156.552V155.016L87.8263 153.912H89.5063L90.6103 155.016V156.552L89.5063 157.656H87.8263L86.7223 156.552ZM87.0823 159.048H90.2503V171H87.0823V159.048ZM93.3814 159.048H96.3094V160.8L98.0614 159.048H102.717L105.189 161.544V168.504L102.717 171H98.0854L96.5494 169.728V176.088H93.3814V159.048ZM101.181 168.312L102.021 167.472V162.576L101.181 161.736H98.4694L96.5494 163.68V166.608L98.4454 168.312H101.181ZM108.547 168.552V161.712H106.387V159.048H108.595V155.16H111.715V159.048H115.363V161.736H111.715V167.52L112.531 168.312H115.363V171H111.019L108.547 168.552Z" fill="#F0F0F0"/>
<path fill-rule="evenodd" clip-rule="evenodd" d="M101.871 100.59C95.2824 100.59 91.0236 97.4493 88.9471 93.3416L94.7236 89.9956C96.2451 92.4799 98.2197 94.3039 101.72 94.3039C104.657 94.3039 106.533 92.8342 106.533 90.8068C106.533 87.7562 102.463 86.5642 99.5902 85.3334C94.4707 83.155 91.0727 80.4177 91.0727 74.6374C91.0727 69.3178 95.1276 65.2633 101.467 65.2633C105.975 65.2633 109.221 66.8336 111.551 70.9375L106.027 74.4863C104.812 72.3078 103.494 71.4463 101.467 71.4463C99.3864 71.4463 98.0688 72.7646 98.0688 74.4863C98.0688 76.6156 99.3864 77.4769 102.429 78.7945C108.806 81.528 113.631 83.6754 113.631 90.7054C113.631 97.0935 108.614 100.59 101.871 100.59ZM85.5303 89.8942C85.5303 97.2451 81.0035 101.13 74.7173 101.13C69.039 101.13 65.6373 98.9587 63.9647 95.1832H63.9082H63.8817H63.8666L69.6393 91.1478C70.753 93.1224 71.7574 94.5233 74.1888 94.5233C76.522 94.5233 77.9794 93.3417 77.9794 89.7965V64.9794H85.5303V89.8942ZM44 106.51H119.51V31H44V106.51Z" fill="#F0F0F0"/>
</svg>
