<svg width="163" height="193" viewBox="0 0 163 193" fill="none" xmlns="http://www.w3.org/2000/svg">
<rect width="163" height="193" fill="white" fill-opacity="0.1"/>
<path d="M62.6038 134.432V140H59.3398V135.176L57.8998 133.568H52.6678V140H49.4038V123.2H59.9398L62.5078 125.792V130.88L60.8758 132.536L62.6038 134.432ZM52.6678 130.88H58.4518L59.2918 130.04V126.776L58.4518 125.936H52.6678V130.88ZM65.2391 137.552V130.544L67.7111 128.048H74.4551L76.9511 130.544V135.08H68.4071V136.616L69.1751 137.408H73.0871L73.8071 136.664V136.04H76.9271V137.6L74.5511 140H67.6631L65.2391 137.552ZM73.7831 132.872V131.48L72.9671 130.64H69.2231L68.4071 131.48V132.872H73.7831ZM79.1113 137.792V135.056L81.3193 132.848H87.3913V131.336L86.6473 130.592H83.0473L82.3273 131.336V132.008H79.2073V130.64L81.7753 128.048H87.9433L90.5113 130.64V140H87.6553V138.296L85.8793 140H81.3193L79.1113 137.792ZM85.6633 137.552L87.3913 135.896V135.104H82.8793L82.2313 135.752V136.952L82.8313 137.552H85.6633ZM93.0359 137.552V130.496L95.4599 128.048H102.036L104.508 130.544V132.752H101.34V131.576L100.5 130.736H97.0439L96.2039 131.576V136.472L97.0439 137.312H100.5L101.34 136.472V135.296H104.508V137.504L102.036 140H95.4599L93.0359 137.552ZM107.739 137.552V130.712H105.579V128.048H107.787V124.16H110.907V128.048H114.555V130.736H110.907V136.52L111.723 137.312H114.555V140H110.211L107.739 137.552ZM46.6733 154.2H49.6013L57.0893 165.6H57.1373V154.2H60.2813V171H57.3533L49.8653 159.624H49.8173V171H46.6733V154.2ZM62.9277 168.792V166.056L65.1357 163.848H71.2077V162.336L70.4637 161.592H66.8637L66.1437 162.336V163.008H63.0237V161.64L65.5917 159.048H71.7597L74.3277 161.64V171H71.4717V169.296L69.6957 171H65.1357L62.9277 168.792ZM69.4797 168.552L71.2077 166.896V166.104H66.6957L66.0477 166.752V167.952L66.6477 168.552H69.4797ZM77.938 168.552V161.712H75.778V159.048H77.986V155.16H81.106V159.048H84.754V161.736H81.106V167.52L81.922 168.312H84.754V171H80.41L77.938 168.552ZM86.6755 156.552V155.016L87.7795 153.912H89.4595L90.5635 155.016V156.552L89.4595 157.656H87.7795L86.6755 156.552ZM87.0355 159.048H90.2035V171H87.0355V159.048ZM91.8945 159.048H95.1825L97.9665 167.376H98.0625L100.847 159.048H104.135L99.5505 171H96.4785L91.8945 159.048ZM105.095 168.552V161.544L107.567 159.048H114.311L116.807 161.544V166.08H108.263V167.616L109.031 168.408H112.943L113.663 167.664V167.04H116.783V168.6L114.407 171H107.519L105.095 168.552ZM113.639 163.872V162.48L112.823 161.64H109.079L108.263 162.48V163.872H113.639Z" fill="#F0F0F0"/>
<path d="M66.8884 42.1943C65.7041 42.878 64.4578 44.7636 64.3132 48.8764C64.2445 50.8301 62.6051 52.3581 60.6515 52.2894C58.6979 52.2207 57.1699 50.5813 57.2386 48.6277C57.4159 43.5855 59.0104 38.5685 63.3488 36.0637C67.6996 33.5518 72.8581 34.6924 77.3247 37.0753C79.0494 37.9954 79.7017 40.1395 78.7816 41.8642C77.8614 43.589 75.7173 44.2412 73.9926 43.3211C70.3425 41.3738 68.0762 41.5085 66.8884 42.1943ZM85.8672 48.3337C87.3726 47.0865 89.6038 47.2958 90.851 48.8012C93.4673 51.959 95.9771 55.56 98.2551 59.506C103.165 68.009 106.192 76.7206 107.008 84.0278C107.415 87.6754 107.29 91.1465 106.438 94.1235C105.58 97.1231 103.908 99.8382 101.104 101.457C97.711 103.416 93.7934 103.138 90.2079 101.833C86.6095 100.522 82.9061 98.0415 79.3756 94.8191C77.9318 93.501 77.8298 91.2621 79.1477 89.8185C80.4656 88.3748 82.7043 88.2724 84.1481 89.5905C87.2587 92.4297 90.1821 94.2891 92.6297 95.1806C95.0903 96.0764 96.6383 95.8612 97.5642 95.3265C98.3401 94.8786 99.1207 93.9659 99.6327 92.1758C100.151 90.3636 100.315 87.8821 99.9725 84.8131C99.2882 78.687 96.6638 70.9074 92.1247 63.0455C90.0369 59.4294 87.7523 56.157 85.3997 53.3174C84.1526 51.8121 84.3619 49.5808 85.8672 48.3337Z" fill="#F0F0F0"/>
<path d="M112.431 69.7251C112.431 68.3577 111.421 66.3356 107.931 64.1539C106.274 63.1177 105.77 60.9339 106.807 59.2764C107.843 57.6188 110.027 57.1152 111.684 58.1515C115.962 60.8261 119.51 64.7156 119.51 69.7251C119.51 74.749 115.943 78.6458 111.646 81.3226C109.986 82.3562 107.803 81.8493 106.77 80.19C105.736 78.5307 106.244 76.3478 107.902 75.3142C111.414 73.1268 112.431 71.0967 112.431 69.7251ZM97.6241 83.0914C97.9517 85.0188 96.6548 86.8466 94.7274 87.1742C90.6848 87.8608 86.3112 88.2337 81.7548 88.2337C71.9364 88.2337 62.8783 86.4998 56.1422 83.5525C52.7795 82.0815 49.8359 80.2381 47.6836 78.012C45.5148 75.7687 44 72.963 44 69.7251C44 65.8077 46.1996 62.5537 49.1228 60.1014C52.0565 57.6402 56.0566 55.6733 60.6127 54.2271C62.476 53.6357 64.4658 54.6667 65.0572 56.5299C65.6486 58.3931 64.6176 60.383 62.7544 60.9744C58.7401 62.2486 55.6681 63.8505 53.6725 65.5247C51.6662 67.2078 51.079 68.6558 51.079 69.7251C51.079 70.6208 51.479 71.7532 52.773 73.0917C54.0835 74.4471 56.1506 75.8295 58.9797 77.0672C64.6272 79.5378 72.6766 81.1546 81.7548 81.1546C85.9303 81.1546 89.9067 80.8125 93.5419 80.1947C95.4693 79.8677 97.2971 81.1645 97.6241 83.0914Z" fill="#F0F0F0"/>
<path d="M66.9922 95.3264C68.1765 96.0102 70.4325 96.1466 74.0667 94.2154C75.7929 93.298 77.9359 93.954 78.8532 95.6798C79.7706 97.4062 79.1148 99.5492 77.3886 100.467C72.9333 102.834 67.7912 103.962 63.4527 101.457C59.102 98.9452 57.5106 93.9073 57.3409 88.8476C57.2754 86.8938 58.8061 85.2571 60.7598 85.1916C62.7135 85.1259 64.3505 86.6564 64.416 88.6103C64.5546 92.7454 65.8044 94.6406 66.9922 95.3264ZM62.8196 75.8204C60.9869 75.1403 60.0525 73.1033 60.7326 71.2706C62.1593 67.426 64.0229 63.4518 66.3011 59.5059C71.2103 51.0029 77.2412 44.0254 83.1614 39.6653C86.1169 37.4886 89.1849 35.861 92.1892 35.1102C95.2162 34.3537 98.4037 34.4446 101.207 36.0636C104.6 38.0223 106.319 41.5542 106.981 45.3119C107.645 49.0832 107.349 53.5308 106.323 58.1997C105.903 60.1089 104.015 61.3167 102.106 60.8973C100.197 60.4778 98.9893 58.5901 99.4089 56.6807C100.312 52.5672 100.461 49.1058 100.009 46.5404C99.5547 43.9614 98.5939 42.7289 97.6679 42.1942C96.8925 41.7464 95.7118 41.5266 93.9057 41.978C92.0764 42.4352 89.8457 43.5342 87.3593 45.3653C82.3958 49.0208 76.9708 55.1834 72.4317 63.0454C70.344 66.6614 68.6523 70.2763 67.3694 73.7334C66.6893 75.5661 64.6523 76.5005 62.8196 75.8204Z" fill="#F0F0F0"/>
<path d="M88.6415 69.0672C88.6415 72.6103 85.7692 75.4826 82.2261 75.4826C78.683 75.4826 75.8108 72.6103 75.8108 69.0672C75.8108 65.5241 78.683 62.6519 82.2261 62.6519C85.7692 62.6519 88.6415 65.5241 88.6415 69.0672Z" fill="#F0F0F0"/>
</svg>
