<svg width="163" height="193" viewBox="0 0 163 193" fill="none" xmlns="http://www.w3.org/2000/svg">
<rect width="163" height="193" fill="white" fill-opacity="0.1"/>
<path d="M52.4305 152.408V150.008H55.6465V151.424L56.4385 152.216H61.4065L62.2225 151.4V148.616L61.4305 147.824H55.0705L52.4785 145.232V140.792L55.0705 138.2H62.6545L65.2465 140.792V143.216H62.0305V141.776L61.2385 140.984H56.4865L55.6945 141.776V144.248L56.4865 145.04H62.8465L65.4385 147.632V152.36L62.7985 155H55.0225L52.4305 152.408ZM72.307 138.2H75.283L81.427 155H78.115L76.747 151.28H70.843L69.475 155H66.163L72.307 138.2ZM76.027 148.592L73.795 142.208H73.747L71.587 148.592H76.027ZM82.407 152.408V150.008H85.623V151.424L86.415 152.216H91.383L92.199 151.4V148.616L91.407 147.824H85.047L82.455 145.232V140.792L85.047 138.2H92.631L95.223 140.792V143.216H92.007V141.776L91.215 140.984H86.463L85.671 141.776V144.248L86.463 145.04H92.823L95.415 147.632V152.36L92.775 155H84.999L82.407 152.408ZM97.6883 152.408V150.008H100.904V151.424L101.696 152.216H106.664L107.48 151.4V148.616L106.688 147.824H100.328L97.7363 145.232V140.792L100.328 138.2H107.912L110.504 140.792V143.216H107.288V141.776L106.496 140.984H101.744L100.952 141.776V144.248L101.744 145.04H108.104L110.696 147.632V152.36L108.056 155H100.28L97.6883 152.408Z" fill="#F0F0F0"/>
<path d="M108.969 72.9928C109.061 72.9905 109.17 72.9881 109.281 72.9881C111.248 72.9881 113.11 73.4459 114.762 74.2623L114.689 74.2293C116.194 74.9632 117.431 76.0486 118.325 77.3795L118.346 77.4125C119.052 78.4413 119.472 79.7132 119.472 81.0818C119.472 81.1809 119.47 81.28 119.465 81.3768V81.3626C119.392 82.7289 118.771 83.9347 117.818 84.7794L117.813 84.7841C117.292 85.2962 116.662 85.6973 115.961 85.9522L115.925 85.964C115.532 86.0426 115.316 85.9836 115.276 85.787C115.237 85.5904 115.414 85.3741 115.807 85.1381C116.874 84.4915 117.646 83.4486 117.926 82.2192L117.933 82.1885C117.941 82.0894 117.945 81.9738 117.945 81.8558C117.945 81.1219 117.771 80.4282 117.462 79.8147L117.473 79.8406C116.961 78.7717 116.197 77.8939 115.255 77.2591L115.232 77.245C113.823 76.3389 112.133 75.7442 110.316 75.5956L110.279 75.5932C109.66 75.5012 108.948 75.4493 108.221 75.4493C106.331 75.4493 104.526 75.8056 102.865 76.4545L102.964 76.4191C103.306 77.219 103.521 78.1464 103.551 79.1186V79.1303C103.513 81.1243 102.442 82.8586 100.849 83.8261L100.823 83.8403C100.092 84.3594 99.2566 84.8148 98.367 85.1688L98.2844 85.1971C97.744 85.4614 97.1093 85.6147 96.4391 85.6147C96.3613 85.6147 96.2858 85.6124 96.2103 85.6077H96.2221C94.7292 85.2946 94.3752 83.9968 95.1602 81.7142C95.5024 80.7208 95.9814 79.8595 96.5878 79.102L96.5737 79.1186C97.35 78.1039 98.2018 77.2143 99.1433 76.4262L99.1693 76.4049L98.938 76.0604C98.5062 75.3242 98.1098 74.4676 97.7912 73.5733L97.7582 73.4648C97.5222 72.6782 97.3256 71.9318 97.1683 71.2254L97.0503 70.3995L95.8705 72.6389C94.8479 74.5266 93.8647 76.1776 92.9209 77.5918L92.5669 78.1818C92.9633 79.1445 93.2559 80.2606 93.3881 81.4263L93.3928 81.4853C93.4022 81.5962 93.407 81.7284 93.407 81.8605C93.407 83.6491 92.5244 85.2301 91.17 86.1952L91.1535 86.207C90.5069 86.6058 89.7353 87.0187 88.9354 87.3869L88.7938 87.4459C87.9608 87.8069 86.9957 88.0429 85.9834 88.0948H85.9622C85.8843 88.0995 85.7923 88.1042 85.7003 88.1042C85.1103 88.1042 84.5511 87.9697 84.0508 87.7314L84.0744 87.7408C83.7748 87.4836 83.586 87.1061 83.586 86.6837C83.586 86.4689 83.6355 86.2637 83.7228 86.082L83.7181 86.0914C84.662 84.7676 85.5917 83.6161 86.5804 82.5165L86.5497 82.5519L89.1454 79.2507L88.6758 78.1888C88.2983 77.4951 87.9372 76.6763 87.647 75.8268L87.614 75.7135C87.378 74.927 87.1813 74.1805 87.024 73.4742L86.9061 72.6483L85.7262 75.4799C84.7839 77.6807 83.9187 79.5677 83.1306 81.1408C81.9554 83.5005 80.9723 85.3096 80.181 86.5681L79.945 86.922C79.0027 88.4149 78.0982 89.1613 77.2314 89.1613C76.3646 89.1613 75.777 88.6107 75.4687 87.5096C75.2422 86.6978 75.11 85.7658 75.11 84.803C75.11 84.7181 75.11 84.6331 75.1124 84.5482V84.56L75.3484 82.9082V83.0262C74.7191 84.5191 74.0899 85.8948 73.4606 87.1533C73.0429 87.9697 72.6135 88.6658 72.1321 89.3218L72.1628 89.277C71.6767 89.7867 70.9924 90.1029 70.2349 90.1029C70.2279 90.1029 70.2231 90.1029 70.2161 90.1029C70.1665 90.1076 70.1099 90.1076 70.0532 90.1076C69.4562 90.1076 68.9135 89.881 68.5029 89.5106L68.5053 89.5129C67.6818 88.6682 67.0706 87.6134 66.7544 86.4359L66.7426 86.3864C66.3556 85.3127 66.1338 84.0715 66.1338 82.7784C66.1338 82.6109 66.1385 82.4457 66.1456 82.2829V82.3065C66.332 80.4282 66.7072 78.708 67.257 77.068L67.2075 77.2355L62.9624 79.7132V79.8312C63.5783 81.1101 63.9393 82.6109 63.9393 84.1966C63.9393 84.4868 63.9275 84.7747 63.9039 85.0579L63.9063 85.0201C63.7812 87.4506 63.0049 89.6757 61.7519 91.5564L61.7826 91.5092C60.4682 93.5952 58.5734 95.2068 56.3223 96.1389L56.2444 96.1672C54.9773 96.7359 53.4954 97.0686 51.938 97.0686C50.9516 97.0686 49.9936 96.9365 49.0875 96.6863L49.163 96.7029C48.4126 96.4504 47.7991 95.9501 47.4098 95.3036L47.4027 95.2894C46.8529 94.4919 46.506 93.5173 46.4517 92.4672V92.4531C46.4258 92.2148 46.4116 91.9387 46.4116 91.6579C46.4116 90.4474 46.6877 89.3006 47.1809 88.2788L47.1596 88.326C48.5141 86.0159 50.3877 84.1447 52.6247 82.828L52.6955 82.7902C54.2788 81.693 56.0981 80.6287 57.9976 79.7014L58.2478 79.5905L58.8377 79.2365C58.1298 78.6859 56.832 77.7421 54.9442 76.4049C52.4217 74.7154 50.2296 73.0093 48.1625 71.1641L48.2215 71.216C46.2229 69.4958 44.7669 67.1975 44.1133 64.5806L44.0944 64.4909C44.0331 64.1275 43.9977 63.7099 43.9977 63.2851C43.9977 61.9543 44.3398 60.7036 44.9392 59.6158L44.9203 59.6559C46.2417 56.8149 48.0728 54.4198 50.3193 52.4943L50.3476 52.4707C52.778 50.1747 55.5294 48.1761 58.5168 46.5574L58.7221 46.4559C61.3909 44.915 64.508 43.4827 67.7573 42.3335L68.1584 42.2108C71.1764 41.1065 74.6617 40.46 78.2956 40.4482H78.3003C78.4655 40.4434 78.6613 40.4387 78.8572 40.4387C81.7856 40.4387 84.5558 41.1159 87.0193 42.3217L86.9108 42.2722C89.0345 43.2397 90.6249 45.0613 91.262 47.2889L91.2762 47.3455C91.472 48.1053 91.5829 48.9784 91.5829 49.8774C91.5829 51.3687 91.2738 52.7893 90.7193 54.0777L90.7452 54.0092C89.7353 56.4562 88.2983 58.5398 86.5049 60.2553L86.4978 60.2624C84.6809 62.0628 82.5029 63.5022 80.0842 64.4626L79.9544 64.5074C77.4202 65.5952 74.4776 66.2795 71.3888 66.3928L71.344 66.3952C70.8909 66.4471 70.3671 66.4754 69.8361 66.4754C68.4392 66.4754 67.0918 66.2748 65.8176 65.8996L65.9191 65.9256C64.7794 65.5622 63.7954 64.9982 62.96 64.2667L62.9695 64.2738C62.3843 63.7972 61.9076 63.2096 61.5678 62.5418L61.5537 62.5111C61.3177 61.8819 61.298 61.5083 61.4947 61.3903C61.6913 61.2723 61.829 61.2526 61.9076 61.3313L62.4976 61.9212C63.1559 62.5324 63.9417 63.0138 64.81 63.3205L64.8572 63.3347C66.0512 63.75 67.4293 63.9907 68.8616 63.9907C69.3217 63.9907 69.7748 63.9671 70.2208 63.9175L70.1665 63.9222C73.9845 63.4715 77.4272 62.169 80.3981 60.2105L80.3108 60.2647C82.8215 58.7711 84.8531 56.7181 86.2831 54.2711L86.3256 54.1909C87.0358 53.1479 87.4606 51.8596 87.4606 50.4721C87.4606 49.6202 87.3001 48.8038 87.0075 48.0534L87.024 48.0982C86.1415 46.7037 84.7139 45.722 83.048 45.4507L83.0149 45.446C81.7218 45.1274 80.2352 44.9433 78.7085 44.9433C77.4791 44.9433 76.2757 45.0613 75.1124 45.2879L75.2304 45.269C71.2496 45.9863 67.6912 47.2157 64.4089 48.9052L64.6236 48.8038C54.9521 53.6804 49.9582 58.6743 49.642 63.7854V63.901C49.642 65.961 50.4514 67.8322 51.7705 69.215L51.7681 69.2126C53.2712 70.8833 54.9324 72.3581 56.747 73.6323L56.839 73.6937C58.4932 74.9301 59.9562 76.2067 61.3177 77.5848L61.3201 77.5895L61.556 77.8254L69.107 73.6984C69.9683 72.4525 71.0042 71.4 72.1935 70.5506L72.2312 70.5246C73.1751 69.7318 74.3738 69.215 75.6881 69.1112L75.7094 69.1088C75.7566 69.1041 75.8109 69.1041 75.8675 69.1041C76.7476 69.1041 77.5027 69.635 77.8284 70.3948L77.8331 70.409C78.0809 70.9635 78.2248 71.6124 78.2248 72.2944C78.2248 72.502 78.2106 72.7073 78.1847 72.9102L78.187 72.8866L77.9582 74.05L78.3121 73.814C78.5575 73.6276 78.8666 73.5167 79.2017 73.5167C79.4141 73.5167 79.6147 73.5615 79.7963 73.6417L79.7869 73.637C80.24 73.755 80.568 74.1609 80.568 74.6422C80.568 74.7248 80.5585 74.8051 80.5396 74.8829L80.542 74.8759L80.1881 76.1737C79.4802 79.0037 79.009 81.048 78.7746 82.3065C78.6566 82.7147 78.5906 83.1843 78.5906 83.6704C78.5906 83.7718 78.5929 83.8709 78.6 83.97V83.9559C78.6393 84.4278 78.6983 84.6638 78.777 84.6638C78.8556 84.6638 79.0121 84.4278 79.2465 83.9559L79.6005 83.13C79.6791 83.13 79.6791 83.1693 79.6005 83.248L80.8983 80.5344C83.9659 73.7731 85.6169 69.9976 85.8513 69.2079L86.5592 66.9686C86.6378 66.8113 86.9525 66.6547 87.5031 66.499C88.0623 66.348 88.7018 66.2607 89.3625 66.2607C89.4168 66.2607 89.471 66.2607 89.5229 66.263H89.5159C90.617 66.263 91.1676 66.5383 91.1676 67.0889L91.0496 67.6788C90.7854 68.4056 90.5234 69.3141 90.3205 70.2438L90.2945 70.3925C90.2474 70.6969 90.219 71.0461 90.219 71.4048C90.219 71.8814 90.2662 72.3463 90.3583 72.797L90.3512 72.7521L90.4692 73.2217C90.7099 74.2057 91.0756 75.0693 91.5546 75.8575L91.531 75.8174C92.4733 74.2458 93.3779 72.6342 94.2446 70.9824C94.929 69.8427 95.5661 68.5212 96.0781 67.1385L96.1324 66.9733C96.3094 66.0837 96.5123 65.3333 96.7601 64.6018L96.7223 64.734C96.801 64.498 97.1368 64.321 97.7299 64.203C98.2915 64.0898 98.9357 64.0261 99.594 64.0261H99.679H99.6743C100.775 64.0261 101.363 64.3013 101.437 64.8519L101.201 65.3215C100.92 66.1144 100.675 67.0677 100.51 68.0469L100.495 68.1531C100.474 68.382 100.46 68.6463 100.46 68.9153C100.46 69.4793 100.517 70.0314 100.623 70.5647L100.613 70.5105V70.98C100.885 72.0088 101.288 72.9126 101.817 73.7314L101.793 73.6937L102.147 74.5195C104.118 73.5521 106.435 72.9858 108.884 72.9858H108.976H108.971L108.969 72.9928ZM58.3799 90.1076C60.0199 88.4133 61.0322 86.1008 61.0322 83.5524C61.0322 82.5684 60.8812 81.6198 60.6027 80.7278L60.6216 80.7939L58.7339 81.9738C56.8084 83.071 55.1424 84.2957 53.6346 85.6879L53.6535 85.6714C52.509 86.7238 51.6643 88.0853 51.249 89.6215L51.2348 89.6805C50.8809 91.1356 51.0578 92.0795 51.7657 92.5121C52.1976 92.7103 52.7049 92.8259 53.2358 92.8259C53.8163 92.8259 54.3661 92.6891 54.8498 92.4436L54.8286 92.4531C56.2302 91.9434 57.4172 91.134 58.361 90.0981L58.3681 90.091L58.3799 90.1076ZM74.1827 79.2436C74.576 78.2211 75.0086 77.0019 75.4805 75.5861C76.1097 73.6984 76.326 72.598 76.1294 72.2849C75.9328 71.9719 75.5592 71.9325 75.0086 72.1669C74.3526 72.4855 73.8028 72.922 73.3639 73.4577L73.3568 73.4671C72.866 74.0877 72.3988 74.7815 71.9835 75.5106L71.941 75.5908C71.4643 76.3719 71.0608 77.2709 70.78 78.2242L70.7588 78.3045C70.3034 79.5386 70.0391 80.9662 70.0391 82.4528C70.0391 82.6533 70.0438 82.8516 70.0532 83.0498V83.0215C70.1319 84.593 70.3836 85.4386 70.8083 85.5581C71.2331 85.6777 71.7247 85.1074 72.2831 83.8473C72.8235 82.8728 73.3049 81.7402 73.6635 80.5532L73.6966 80.4258C73.931 79.8689 74.0914 79.4749 74.178 79.2436H74.1827ZM87.2694 85.4968C88.9047 84.7629 90.0562 83.2173 90.2167 81.3886L90.219 81.3697V81.2517L88.9212 82.9035L86.5639 85.4991C86.5285 85.5274 86.5049 85.5699 86.5049 85.6171C86.5049 85.6643 86.5285 85.7068 86.5615 85.7351C86.6371 85.8122 86.873 85.7335 87.2694 85.4991V85.4968ZM97.4137 83.2551C99.1976 82.7454 100.481 81.129 100.481 79.2153C100.481 79.1846 100.481 79.1539 100.481 79.1233V79.128C100.458 78.6561 100.373 78.2124 100.234 77.7924L100.243 77.8278C99.325 78.6443 98.5723 79.6212 98.0272 80.7231L98.0013 80.7774C97.2918 82.1916 97.0936 83.0159 97.4066 83.2503L97.4137 83.2551Z" fill="#F0F0F0"/>
</svg>
