<svg width="164" height="193" viewBox="0 0 164 193" fill="none" xmlns="http://www.w3.org/2000/svg">
<rect width="163" height="193" transform="translate(0.5)" fill="white" fill-opacity="0.1"/>
<path d="M60.0596 125.96H55.0436V123.2H68.3396V125.96H63.3236V140H60.0596V125.96ZM79.4522 128.048V142.736L76.8602 145.304H70.5722L68.3402 143.096V141.464H71.5082V142.184L71.9642 142.664H75.4682L76.2842 141.824V138.224L74.5082 140H70.5482L67.9802 137.408V128.048H71.1482V136.472L71.9642 137.312H74.0522L76.2842 134.936V128.048H79.4522ZM82.3267 128.048H85.2547V129.8L87.0067 128.048H91.6627L94.1347 130.544V137.504L91.6627 140H87.0307L85.4947 138.728V145.088H82.3267V128.048ZM90.1267 137.312L90.9667 136.472V131.576L90.1267 130.736H87.4147L85.4947 132.68V135.608L87.3907 137.312H90.1267ZM96.5242 137.552V130.544L98.9962 128.048H105.74L108.236 130.544V135.08H99.6922V136.616L100.46 137.408H104.372L105.092 136.664V136.04H108.212V137.6L105.836 140H98.9482L96.5242 137.552ZM105.068 132.872V131.48L104.252 130.64H100.508L99.6922 131.48V132.872H105.068ZM48.7352 168.408V166.008H51.9512V167.424L52.7432 168.216H57.7112L58.5272 167.4V164.616L57.7352 163.824H51.3752L48.7832 161.232V156.792L51.3752 154.2H58.9592L61.5512 156.792V159.216H58.3352V157.776L57.5432 156.984H52.7912L51.9992 157.776V160.248L52.7912 161.04H59.1512L61.7432 163.632V168.36L59.1032 171H51.3272L48.7352 168.408ZM63.8992 168.552V161.496L66.3232 159.048H72.8992L75.3712 161.544V163.752H72.2032V162.576L71.3632 161.736H67.9072L67.0672 162.576V167.472L67.9072 168.312H71.3632L72.2032 167.472V166.296H75.3712V168.504L72.8992 171H66.3232L63.8992 168.552ZM77.522 159.048H80.45V161.04L82.37 159.048H85.778V161.736H83.018L80.69 164.136V171H77.522V159.048ZM87.2223 156.552V155.016L88.3263 153.912H90.0063L91.1103 155.016V156.552L90.0063 157.656H88.3263L87.2223 156.552ZM87.5823 159.048H90.7503V171H87.5823V159.048ZM93.8814 159.048H96.8094V160.8L98.5614 159.048H103.217L105.689 161.544V168.504L103.217 171H98.5854L97.0494 169.728V176.088H93.8814V159.048ZM101.681 168.312L102.521 167.472V162.576L101.681 161.736H98.9694L97.0494 163.68V166.608L98.9454 168.312H101.681ZM109.047 168.552V161.712H106.887V159.048H109.095V155.16H112.215V159.048H115.863V161.736H112.215V167.52L113.031 168.312H115.863V171H111.519L109.047 168.552Z" fill="#F0F0F0"/>
<path fill-rule="evenodd" clip-rule="evenodd" d="M44.5 31H120.01V106.51H44.5V31ZM94.8398 61.2039C89.2794 61.2039 84.7718 65.7114 84.7718 71.2718C84.7718 76.8322 89.2794 81.3398 94.8398 81.3398H99.8738C102.654 81.3398 104.908 83.5935 104.908 86.3738C104.908 89.154 102.654 91.4077 99.8738 91.4077H94.8398C92.0596 91.4077 89.8058 89.154 89.8058 86.3738H84.7718C84.7718 91.9343 89.2794 96.4417 94.8398 96.4417H99.8738C105.434 96.4417 109.942 91.9343 109.942 86.3738C109.942 80.8134 105.434 76.3058 99.8738 76.3058H94.8398C92.0596 76.3058 89.8058 74.052 89.8058 71.2718C89.8058 68.4917 92.0596 66.2379 94.8398 66.2379H100.713C103.03 66.2379 104.908 68.116 104.908 70.4328V71.2718H109.942V70.4328C109.942 65.3358 105.81 61.2039 100.713 61.2039H94.8398ZM59.6019 61.2039H84.7718V66.2379H74.7039V96.4417H69.6699V66.2379H59.6019V61.2039Z" fill="#F0F0F0"/>
</svg>
